<svg version="1.1" xmlns="http://www.w3.org/2000/svg" xmlns:xlink="http://www.w3.org/1999/xlink" width="972" height="924"><defs/><g><g transform="translate(-110,-46) scale(1,1)"><rect fill="#C0C0C0" stroke="none" x="127" y="63" width="380.8" height="15" opacity="0.2"/></g><g transform="translate(-110,-46) scale(1,1)"><rect fill="#C0C0C0" stroke="none" x="127" y="77" width="952" height="482" opacity="0.2"/></g><g transform="translate(-110,-46) scale(1,1)"><rect fill="#ffffff" stroke="none" x="120" y="71" width="952" height="481"/></g><g transform="translate(-110,-46) scale(1,1)"><path fill="none" stroke="#000000" d="M 120 71 L 1072 71 L 1072 552 L 120 552 L 120 71 Z Z" stroke-miterlimit="10"/></g><g transform="translate(-110,-46) scale(1,1)"><rect fill="#ffffff" stroke="none" x="120" y="56" width="380.8" height="15"/></g><g transform="translate(-110,-46) scale(1,1)"><path fill="none" stroke="#000000" d="M 120 56 L 500.8 56 L 500.8 71 L 120 71 L 120 56 Z Z" stroke-miterlimit="10"/></g><g transform="translate(-110,-46) scale(1,1)"><rect fill="#ffffff" stroke="none" x="120" y="70" width="952" height="482"/></g><g transform="translate(-110,-46) scale(1,1)"><path fill="none" stroke="#000000" d="M 120 70 L 1072 70 L 1072 552 L 120 552 L 120 70 Z Z" stroke-miterlimit="10"/></g><g transform="translate(-110,-46) scale(1,1)"><g><path fill="none" stroke="none"/><text fill="#000000" stroke="none" font-family="Arial" font-size="16px" font-style="normal" font-weight="bold" text-decoration="none" x="571.9921875" y="93.5">factory</text></g></g><g transform="translate(-110,-46) scale(1,1)"><rect fill="#C0C0C0" stroke="none" x="527" y="415" width="311" height="117" opacity="0.2"/></g><g transform="translate(-110,-46) scale(1,1)"><rect fill="#ffffff" stroke="none" x="520" y="408" width="311" height="117"/></g><g transform="translate(-110,-46) scale(1,1)"><path fill="none" stroke="#000000" d="M 520 408 L 831 408 L 831 525 L 520 525 L 520 408 Z Z" stroke-miterlimit="10"/></g><g transform="translate(-110,-46) scale(1,1)"><path fill="none" stroke="#000000" d="M 520 436 L 831 436" stroke-miterlimit="10"/></g><g transform="translate(-110,-46) scale(1,1)"><path fill="none" stroke="#000000" d="M 520 446 L 831 446" stroke-miterlimit="10"/></g><g transform="translate(-110,-46) scale(1,1)"><g><path fill="none" stroke="none"/><text fill="#000000" stroke="none" font-family="Arial" font-size="16px" font-style="italic" font-weight="bold" text-decoration="none" x="648.828125" y="430.5">Factory</text></g></g><g transform="translate(-110,-46) scale(1,1)"><g><path fill="none" stroke="none"/><text fill="#000000" stroke="none" font-family="Arial" font-size="16px" font-style="italic" font-weight="normal" text-decoration="none" x="525" y="466.5">+getFactory()</text></g></g><g transform="translate(-110,-46) scale(1,1)"><g><path fill="none" stroke="none"/><text fill="#000000" stroke="none" font-family="Arial" font-size="16px" font-style="italic" font-weight="normal" text-decoration="none" x="525" y="484.5">+createLink()</text></g></g><g transform="translate(-110,-46) scale(1,1)"><g><path fill="none" stroke="none"/><text fill="#000000" stroke="none" font-family="Arial" font-size="16px" font-style="italic" font-weight="normal" text-decoration="none" x="525" y="502.5">+createTray()</text></g></g><g transform="translate(-110,-46) scale(1,1)"><g><path fill="none" stroke="none"/><text fill="#000000" stroke="none" font-family="Arial" font-size="16px" font-style="italic" font-weight="normal" text-decoration="none" x="525" y="520.5">+createPage()</text></g></g><g transform="translate(-110,-46) scale(1,1)"><rect fill="#C0C0C0" stroke="none" x="335" y="119" width="135" height="80" opacity="0.2"/></g><g transform="translate(-110,-46) scale(1,1)"><rect fill="#ffffff" stroke="none" x="328" y="112" width="135" height="80"/></g><g transform="translate(-110,-46) scale(1,1)"><path fill="none" stroke="#000000" d="M 328 112 L 463 112 L 463 192 L 328 192 L 328 112 Z Z" stroke-miterlimit="10"/></g><g transform="translate(-110,-46) scale(1,1)"><path fill="none" stroke="#000000" d="M 328 140 L 463 140" stroke-miterlimit="10"/></g><g transform="translate(-110,-46) scale(1,1)"><path fill="none" stroke="#000000" d="M 328 166 L 463 166" stroke-miterlimit="10"/></g><g transform="translate(-110,-46) scale(1,1)"><g><path fill="none" stroke="none"/><text fill="#000000" stroke="none" font-family="Arial" font-size="16px" font-style="italic" font-weight="bold" text-decoration="none" x="379.94140625" y="134.5">Item</text></g></g><g transform="translate(-110,-46) scale(1,1)"><g><path fill="none" stroke="none"/><text fill="#000000" stroke="none" font-family="Arial" font-size="16px" font-style="normal" font-weight="normal" text-decoration="none" x="333" y="160.5">#caption</text></g></g><g transform="translate(-110,-46) scale(1,1)"><g><path fill="none" stroke="none"/><text fill="#000000" stroke="none" font-family="Arial" font-size="16px" font-style="italic" font-weight="normal" text-decoration="none" x="333" y="186.5">+makeHTML()</text></g></g><g transform="translate(-110,-46) scale(1,1)"><rect fill="#C0C0C0" stroke="none" x="183" y="247" width="159" height="79" opacity="0.2"/></g><g transform="translate(-110,-46) scale(1,1)"><rect fill="#ffffff" stroke="none" x="176" y="240" width="159" height="79"/></g><g transform="translate(-110,-46) scale(1,1)"><path fill="none" stroke="#000000" d="M 176 240 L 335 240 L 335 319 L 176 319 L 176 240 Z Z" stroke-miterlimit="10"/></g><g transform="translate(-110,-46) scale(1,1)"><path fill="none" stroke="#000000" d="M 176 268 L 335 268" stroke-miterlimit="10"/></g><g transform="translate(-110,-46) scale(1,1)"><path fill="none" stroke="#000000" d="M 176 294 L 335 294" stroke-miterlimit="10"/></g><g transform="translate(-110,-46) scale(1,1)"><g><path fill="none" stroke="none"/><text fill="#000000" stroke="none" font-family="Arial" font-size="16px" font-style="italic" font-weight="bold" text-decoration="none" x="240.82421875" y="262.5">Link</text></g></g><g transform="translate(-110,-46) scale(1,1)"><g><path fill="none" stroke="none"/><text fill="#000000" stroke="none" font-family="Arial" font-size="16px" font-style="normal" font-weight="normal" text-decoration="none" x="181" y="288.5">-url</text></g></g><g transform="translate(-110,-46) scale(1,1)"><g><path fill="none" stroke="none"/><text fill="#000000" stroke="none" font-family="Arial" font-size="16px" font-style="italic" font-weight="normal" text-decoration="none" x="181" y="314.5">+makeHTML()</text></g></g><g transform="translate(-110,-46) scale(1,1)"><rect fill="#C0C0C0" stroke="none" x="431" y="239" width="223" height="103" opacity="0.2"/></g><g transform="translate(-110,-46) scale(1,1)"><rect fill="#ffffff" stroke="none" x="424" y="232" width="223" height="103"/></g><g transform="translate(-110,-46) scale(1,1)"><path fill="none" stroke="#000000" d="M 424 232 L 647 232 L 647 335 L 424 335 L 424 232 Z Z" stroke-miterlimit="10"/></g><g transform="translate(-110,-46) scale(1,1)"><path fill="none" stroke="#000000" d="M 424 260 L 647 260" stroke-miterlimit="10"/></g><g transform="translate(-110,-46) scale(1,1)"><path fill="none" stroke="#000000" d="M 424 286 L 647 286" stroke-miterlimit="10"/></g><g transform="translate(-110,-46) scale(1,1)"><g><path fill="none" stroke="none"/><text fill="#000000" stroke="none" font-family="Arial" font-size="16px" font-style="italic" font-weight="bold" text-decoration="none" x="520.09375" y="254.5">Tray</text></g></g><g transform="translate(-110,-46) scale(1,1)"><g><path fill="none" stroke="none"/><text fill="#000000" stroke="none" font-family="Arial" font-size="16px" font-style="normal" font-weight="normal" text-decoration="none" x="429" y="280.5">-tray</text></g></g><g transform="translate(-110,-46) scale(1,1)"><g><path fill="none" stroke="none"/><text fill="#000000" stroke="none" font-family="Arial" font-size="16px" font-style="normal" font-weight="normal" text-decoration="none" x="429" y="306.5">-add()</text></g></g><g transform="translate(-110,-46) scale(1,1)"><g><path fill="none" stroke="none"/><text fill="#000000" stroke="none" font-family="Arial" font-size="16px" font-style="italic" font-weight="normal" text-decoration="none" x="429" y="324.5">+makeHTML()</text></g></g><g transform="translate(-110,-46) scale(1,1)"><rect fill="#C0C0C0" stroke="none" x="815" y="215" width="167" height="136" opacity="0.2"/></g><g transform="translate(-110,-46) scale(1,1)"><rect fill="#ffffff" stroke="none" x="808" y="208" width="167" height="136"/></g><g transform="translate(-110,-46) scale(1,1)"><path fill="none" stroke="#000000" d="M 808 208 L 975 208 L 975 344 L 808 344 L 808 208 Z Z" stroke-miterlimit="10"/></g><g transform="translate(-110,-46) scale(1,1)"><path fill="none" stroke="#000000" d="M 808 236 L 975 236" stroke-miterlimit="10"/></g><g transform="translate(-110,-46) scale(1,1)"><path fill="none" stroke="#000000" d="M 808 280 L 975 280" stroke-miterlimit="10"/></g><g transform="translate(-110,-46) scale(1,1)"><g><path fill="none" stroke="none"/><text fill="#000000" stroke="none" font-family="Arial" font-size="16px" font-style="italic" font-weight="bold" text-decoration="none" x="872.81640625" y="230.5">Page</text></g></g><g transform="translate(-110,-46) scale(1,1)"><g><path fill="none" stroke="none"/><text fill="#000000" stroke="none" font-family="Arial" font-size="16px" font-style="normal" font-weight="normal" text-decoration="none" x="813" y="256.5">-title</text></g></g><g transform="translate(-110,-46) scale(1,1)"><g><path fill="none" stroke="none"/><text fill="#000000" stroke="none" font-family="Arial" font-size="16px" font-style="normal" font-weight="normal" text-decoration="none" x="813" y="274.5">-author</text></g></g><g transform="translate(-110,-46) scale(1,1)"><g><path fill="none" stroke="none"/><text fill="#000000" stroke="none" font-family="Arial" font-size="16px" font-style="normal" font-weight="normal" text-decoration="none" x="813" y="300.5">+add()</text></g></g><g transform="translate(-110,-46) scale(1,1)"><g><path fill="none" stroke="none"/><text fill="#000000" stroke="none" font-family="Arial" font-size="16px" font-style="normal" font-weight="normal" text-decoration="none" x="813" y="318.5">+output()</text></g></g><g transform="translate(-110,-46) scale(1,1)"><g><path fill="none" stroke="none"/><text fill="#000000" stroke="none" font-family="Arial" font-size="16px" font-style="italic" font-weight="normal" text-decoration="none" x="813" y="336.5">+makeHTML()</text></g></g><g transform="translate(-110,-46) scale(1,1)"><rect fill="#C0C0C0" stroke="none" x="127" y="631" width="380.8" height="15" opacity="0.2"/></g><g transform="translate(-110,-46) scale(1,1)"><rect fill="#C0C0C0" stroke="none" x="127" y="645" width="952" height="322" opacity="0.2"/></g><g transform="translate(-110,-46) scale(1,1)"><rect fill="#ffffff" stroke="none" x="120" y="639" width="952" height="321"/></g><g transform="translate(-110,-46) scale(1,1)"><path fill="none" stroke="#000000" d="M 120 639 L 1072 639 L 1072 960 L 120 960 L 120 639 Z Z" stroke-miterlimit="10"/></g><g transform="translate(-110,-46) scale(1,1)"><rect fill="#ffffff" stroke="none" x="120" y="624" width="380.8" height="15"/></g><g transform="translate(-110,-46) scale(1,1)"><path fill="none" stroke="#000000" d="M 120 624 L 500.8 624 L 500.8 639 L 120 639 L 120 624 Z Z" stroke-miterlimit="10"/></g><g transform="translate(-110,-46) scale(1,1)"><rect fill="#ffffff" stroke="none" x="120" y="638" width="952" height="322"/></g><g transform="translate(-110,-46) scale(1,1)"><path fill="none" stroke="#000000" d="M 120 638 L 1072 638 L 1072 960 L 120 960 L 120 638 Z Z" stroke-miterlimit="10"/></g><g transform="translate(-110,-46) scale(1,1)"><g><path fill="none" stroke="none"/><text fill="#000000" stroke="none" font-family="Arial" font-size="16px" font-style="normal" font-weight="bold" text-decoration="none" x="562.21484375" y="661.5">listfactory</text></g></g><g transform="translate(-110,-46) scale(1,1)"><rect fill="#C0C0C0" stroke="none" x="167" y="703" width="191" height="64" opacity="0.2"/></g><g transform="translate(-110,-46) scale(1,1)"><rect fill="#ffffff" stroke="none" x="160" y="696" width="191" height="64"/></g><g transform="translate(-110,-46) scale(1,1)"><path fill="none" stroke="#000000" d="M 160 696 L 351 696 L 351 760 L 160 760 L 160 696 Z Z" stroke-miterlimit="10"/></g><g transform="translate(-110,-46) scale(1,1)"><path fill="none" stroke="#000000" d="M 160 724 L 351 724" stroke-miterlimit="10"/></g><g transform="translate(-110,-46) scale(1,1)"><path fill="none" stroke="#000000" d="M 160 734 L 351 734" stroke-miterlimit="10"/></g><g transform="translate(-110,-46) scale(1,1)"><g><path fill="none" stroke="none"/><text fill="#000000" stroke="none" font-family="Arial" font-size="16px" font-style="normal" font-weight="bold" text-decoration="none" x="226.6015625" y="718.5">ListLINk</text></g></g><g transform="translate(-110,-46) scale(1,1)"><g><path fill="none" stroke="none"/><text fill="#000000" stroke="none" font-family="Arial" font-size="16px" font-style="normal" font-weight="normal" text-decoration="none" x="165" y="754.5">+makeHTML()</text></g></g><g transform="translate(-110,-46) scale(1,1)"><rect fill="#C0C0C0" stroke="none" x="431" y="703" width="215" height="63" opacity="0.2"/></g><g transform="translate(-110,-46) scale(1,1)"><rect fill="#ffffff" stroke="none" x="424" y="696" width="215" height="63"/></g><g transform="translate(-110,-46) scale(1,1)"><path fill="none" stroke="#000000" d="M 424 696 L 639 696 L 639 759 L 424 759 L 424 696 Z Z" stroke-miterlimit="10"/></g><g transform="translate(-110,-46) scale(1,1)"><path fill="none" stroke="#000000" d="M 424 724 L 639 724" stroke-miterlimit="10"/></g><g transform="translate(-110,-46) scale(1,1)"><path fill="none" stroke="#000000" d="M 424 734 L 639 734" stroke-miterlimit="10"/></g><g transform="translate(-110,-46) scale(1,1)"><g><path fill="none" stroke="none"/><text fill="#000000" stroke="none" font-family="Arial" font-size="16px" font-style="normal" font-weight="bold" text-decoration="none" x="503.34765625" y="718.5">ListTray</text></g></g><g transform="translate(-110,-46) scale(1,1)"><g><path fill="none" stroke="none"/><text fill="#000000" stroke="none" font-family="Arial" font-size="16px" font-style="normal" font-weight="normal" text-decoration="none" x="429" y="754.5">+makeHTML()</text></g></g><g transform="translate(-110,-46) scale(1,1)"><rect fill="#C0C0C0" stroke="none" x="791" y="703" width="207" height="63" opacity="0.2"/></g><g transform="translate(-110,-46) scale(1,1)"><rect fill="#ffffff" stroke="none" x="784" y="696" width="207" height="63"/></g><g transform="translate(-110,-46) scale(1,1)"><path fill="none" stroke="#000000" d="M 784 696 L 991 696 L 991 759 L 784 759 L 784 696 Z Z" stroke-miterlimit="10"/></g><g transform="translate(-110,-46) scale(1,1)"><path fill="none" stroke="#000000" d="M 784 724 L 991 724" stroke-miterlimit="10"/></g><g transform="translate(-110,-46) scale(1,1)"><path fill="none" stroke="#000000" d="M 784 734 L 991 734" stroke-miterlimit="10"/></g><g transform="translate(-110,-46) scale(1,1)"><g><path fill="none" stroke="none"/><text fill="#000000" stroke="none" font-family="Arial" font-size="16px" font-style="normal" font-weight="bold" text-decoration="none" x="856.3671875" y="718.5">ListPage</text></g></g><g transform="translate(-110,-46) scale(1,1)"><g><path fill="none" stroke="none"/><text fill="#000000" stroke="none" font-family="Arial" font-size="16px" font-style="normal" font-weight="normal" text-decoration="none" x="789" y="754.5">+makeHTML()</text></g></g><g transform="translate(-110,-46) scale(1,1)"><rect fill="#C0C0C0" stroke="none" x="559" y="823" width="239" height="111" opacity="0.2"/></g><g transform="translate(-110,-46) scale(1,1)"><rect fill="#ffffff" stroke="none" x="552" y="816" width="239" height="111"/></g><g transform="translate(-110,-46) scale(1,1)"><path fill="none" stroke="#000000" d="M 552 816 L 791 816 L 791 927 L 552 927 L 552 816 Z Z" stroke-miterlimit="10"/></g><g transform="translate(-110,-46) scale(1,1)"><path fill="none" stroke="#000000" d="M 552 844 L 791 844" stroke-miterlimit="10"/></g><g transform="translate(-110,-46) scale(1,1)"><path fill="none" stroke="#000000" d="M 552 854 L 791 854" stroke-miterlimit="10"/></g><g transform="translate(-110,-46) scale(1,1)"><g><path fill="none" stroke="none"/><text fill="#000000" stroke="none" font-family="Arial" font-size="16px" font-style="normal" font-weight="bold" text-decoration="none" x="632.37890625" y="838.5">ListFactory</text></g></g><g transform="translate(-110,-46) scale(1,1)"><g><path fill="none" stroke="none"/><text fill="#000000" stroke="none" font-family="Arial" font-size="16px" font-style="normal" font-weight="normal" text-decoration="none" x="557" y="874.5">+createLink()</text></g></g><g transform="translate(-110,-46) scale(1,1)"><g><path fill="none" stroke="none"/><text fill="#000000" stroke="none" font-family="Arial" font-size="16px" font-style="normal" font-weight="normal" text-decoration="none" x="557" y="892.5">+createTray()</text></g></g><g transform="translate(-110,-46) scale(1,1)"><g><path fill="none" stroke="none"/><text fill="#000000" stroke="none" font-family="Arial" font-size="16px" font-style="normal" font-weight="normal" text-decoration="none" x="557" y="910.5">+createPage()</text></g></g><g transform="translate(-110,-46) scale(1,1)"><path fill="none" stroke="#000000" d="M 464 152 L 536 152 L 535 231" stroke-miterlimit="10"/></g><g transform="translate(-110,-46) scale(1,1)"><path fill="#FFFFFF" stroke="none" d="M 530.9194505994928 220.78485846451355 L 535 231 L 539.3378116984575 220.89141999741184 L 535.2784587047307 209.0017623262735"/></g><g transform="translate(-110,-46) scale(1,1)"><path fill="none" stroke="#000000" d="M 530.9194505994928 220.78485846451355 L 535 231 L 539.3378116984575 220.89141999741184 L 535.2784587047307 209.0017623262735 L 530.9194505994928 220.78485846451355" stroke-miterlimit="10"/></g><g transform="translate(-110,-46) scale(1,1)"><path fill="none" stroke="#000000" d="M 299 239 L 350 193" stroke-miterlimit="10" stroke-dasharray="3"/></g><g transform="translate(-110,-46) scale(1,1)"><path fill="none" stroke="#000000" d="M 345.27290887116453 202.9325026785642 L 350 193 L 339.6341018093474 196.68078180567997" stroke-miterlimit="10"/></g><g transform="translate(-110,-46) scale(1,1)"><path fill="none" stroke="#000000" d="M 479 231 L 439 193" stroke-miterlimit="10" stroke-dasharray="3"/></g><g transform="translate(-110,-46) scale(1,1)"><path fill="none" stroke="#000000" d="M 449.26723660495804 196.94763885098538 L 439 193 L 443.4686304262053 203.05143482861985" stroke-miterlimit="10"/></g><g transform="translate(-110,-46) scale(1,1)"><path fill="none" stroke="#000000" d="M 542 407 L 336 315" stroke-miterlimit="10"/></g><g transform="translate(-110,-46) scale(1,1)"><path fill="none" stroke="#000000" d="M 346.99589352155834 315.3005422808047 L 336 315 L 343.5627553895089 322.9877863590894" stroke-miterlimit="10"/></g><g transform="translate(-110,-46) scale(1,1)"><g><path fill="none" stroke="none"/><text fill="#000000" stroke="none" font-family="Arial" font-size="16px" font-style="normal" font-weight="normal" text-decoration="none" x="463.5" y="373.5">+creates</text></g></g><g transform="translate(-110,-46) scale(1,1)"><path fill="none" stroke="#000000" d="M 630 407 L 576 336" stroke-miterlimit="10"/></g><g transform="translate(-110,-46) scale(1,1)"><path fill="none" stroke="#000000" d="M 585.5027021003306 341.5406364970438 L 576 336 L 578.80160345559 346.63724673388873" stroke-miterlimit="10"/></g><g transform="translate(-110,-46) scale(1,1)"><g><path fill="none" stroke="none"/><text fill="#000000" stroke="none" font-family="Arial" font-size="16px" font-style="normal" font-weight="normal" text-decoration="none" x="593.5" y="364.5">+creates</text></g></g><g transform="translate(-110,-46) scale(1,1)"><path fill="none" stroke="#000000" d="M 742 407 L 813 345" stroke-miterlimit="10"/></g><g transform="translate(-110,-46) scale(1,1)"><path fill="none" stroke="#000000" d="M 808.113956546551 354.85528180068985 L 813 345 L 802.5763089491219 348.5137821326662" stroke-miterlimit="10"/></g><g transform="translate(-110,-46) scale(1,1)"><g><path fill="none" stroke="none"/><text fill="#000000" stroke="none" font-family="Arial" font-size="13px" font-style="normal" font-weight="normal" text-decoration="none" x="742.5" y="355.5">+creates</text></g></g><g transform="translate(-110,-46) scale(1,1)"><path fill="none" stroke="#000000" d="M 255 695 L 255 320" stroke-miterlimit="10" stroke-dasharray="3"/></g><g transform="translate(-110,-46) scale(1,1)"><path fill="none" stroke="#000000" d="M 259.209517756016 330.16267485762415 L 255 320 L 250.790482243984 330.16267485762415" stroke-miterlimit="10"/></g><g transform="translate(-110,-46) scale(1,1)"><path fill="none" stroke="#000000" d="M 423 728 L 392 728 L 400 288 L 423 287" stroke-miterlimit="10" stroke-dasharray="3"/></g><g transform="translate(-110,-46) scale(1,1)"><path fill="none" stroke="#000000" d="M 413.02976686499363 291.6469830248906 L 423 287 L 412.6640673312673 283.23589374918504" stroke-miterlimit="10"/></g><g transform="translate(-110,-46) scale(1,1)"><path fill="none" stroke="#000000" d="M 887 695 L 890 345" stroke-miterlimit="10" stroke-dasharray="3"/></g><g transform="translate(-110,-46) scale(1,1)"><path fill="none" stroke="#000000" d="M 894.1222576872863 355.1983818108369 L 890 345 L 885.7035314289061 355.1262213000508" stroke-miterlimit="10"/></g><g transform="translate(-110,-46) scale(1,1)"><path fill="none" stroke="#000000" d="M 551 830 L 351 761" stroke-miterlimit="10"/></g><g transform="translate(-110,-46) scale(1,1)"><path fill="none" stroke="#000000" d="M 361.97988438686855 760.335064776839 L 351 761 L 359.234130911946 768.2937705012521" stroke-miterlimit="10"/></g><g transform="translate(-110,-46) scale(1,1)"><g><path fill="none" stroke="none"/><text fill="#000000" stroke="none" font-family="Arial" font-size="16px" font-style="normal" font-weight="normal" text-decoration="none" x="415.5" y="816.5">+creates</text></g></g><g transform="translate(-110,-46) scale(1,1)"><path fill="none" stroke="#000000" d="M 617 815 L 563 760" stroke-miterlimit="10"/></g><g transform="translate(-110,-46) scale(1,1)"><path fill="none" stroke="#000000" d="M 573.1236293948183 764.3025722395297 L 563 760 L 567.116108988179 770.2008650024119" stroke-miterlimit="10"/></g><g transform="translate(-110,-46) scale(1,1)"><g><path fill="none" stroke="none"/><text fill="#000000" stroke="none" font-family="Arial" font-size="16px" font-style="normal" font-weight="normal" text-decoration="none" x="599.5" y="797.5">+creates</text></g></g><g transform="translate(-110,-46) scale(1,1)"><path fill="none" stroke="#000000" d="M 755 815 L 838 760" stroke-miterlimit="10"/></g><g transform="translate(-110,-46) scale(1,1)"><path fill="none" stroke="#000000" d="M 831.8537285990203 769.1226831505594 L 838 760 L 827.2032186949775 762.1046409317312" stroke-miterlimit="10"/></g><g transform="translate(-110,-46) scale(1,1)"><g><path fill="none" stroke="none"/><text fill="#000000" stroke="none" font-family="Arial" font-size="16px" font-style="normal" font-weight="normal" text-decoration="none" x="806.5" y="797.5">+creates</text></g></g></g></svg>