<svg version="1.1" xmlns="http://www.w3.org/2000/svg" xmlns:xlink="http://www.w3.org/1999/xlink" width="859" height="372"><defs/><g><g transform="translate(-190,-142) scale(1,1)"><rect fill="#C0C0C0" stroke="none" x="215" y="159" width="327" height="144" opacity="0.2"/></g><g transform="translate(-190,-142) scale(1,1)"><rect fill="#ffffff" stroke="none" x="208" y="152" width="327" height="144"/></g><g transform="translate(-190,-142) scale(1,1)"><path fill="none" stroke="#000000" d="M 208 152 L 535 152 L 535 296 L 208 296 L 208 152 Z Z" stroke-miterlimit="10"/></g><g transform="translate(-190,-142) scale(1,1)"><path fill="none" stroke="#000000" d="M 208 180 L 535 180" stroke-miterlimit="10"/></g><g transform="translate(-190,-142) scale(1,1)"><path fill="none" stroke="#000000" d="M 208 206 L 535 206" stroke-miterlimit="10"/></g><g transform="translate(-190,-142) scale(1,1)"><g><path fill="none" stroke="none"/><text fill="#000000" stroke="none" font-family="Arial" font-size="16px" font-style="normal" font-weight="bold" text-decoration="none" x="345.26953125" y="174.5">Display</text></g></g><g transform="translate(-190,-142) scale(1,1)"><g><path fill="none" stroke="none"/><text fill="#000000" stroke="none" font-family="Arial" font-size="16px" font-style="normal" font-weight="normal" text-decoration="none" x="213" y="200.5">-impl</text></g></g><g transform="translate(-190,-142) scale(1,1)"><g><path fill="none" stroke="none"/><text fill="#000000" stroke="none" font-family="Arial" font-size="16px" font-style="normal" font-weight="normal" text-decoration="none" x="213" y="226.5">+open()</text></g></g><g transform="translate(-190,-142) scale(1,1)"><g><path fill="none" stroke="none"/><text fill="#000000" stroke="none" font-family="Arial" font-size="16px" font-style="normal" font-weight="normal" text-decoration="none" x="213" y="244.5">+print()</text></g></g><g transform="translate(-190,-142) scale(1,1)"><g><path fill="none" stroke="none"/><text fill="#000000" stroke="none" font-family="Arial" font-size="16px" font-style="normal" font-weight="normal" text-decoration="none" x="213" y="262.5">+close()</text></g></g><g transform="translate(-190,-142) scale(1,1)"><g><path fill="none" stroke="none"/><text fill="#000000" stroke="none" font-family="Arial" font-size="16px" font-style="normal" font-weight="normal" text-decoration="none" x="213" y="280.5">+display()</text></g></g><g transform="translate(-190,-142) scale(1,1)"><rect fill="#C0C0C0" stroke="none" x="207" y="431" width="343" height="79" opacity="0.2"/></g><g transform="translate(-190,-142) scale(1,1)"><rect fill="#ffffff" stroke="none" x="200" y="424" width="343" height="79"/></g><g transform="translate(-190,-142) scale(1,1)"><path fill="none" stroke="#000000" d="M 200 424 L 543 424 L 543 503 L 200 503 L 200 424 Z Z" stroke-miterlimit="10"/></g><g transform="translate(-190,-142) scale(1,1)"><path fill="none" stroke="#000000" d="M 200 452 L 543 452" stroke-miterlimit="10"/></g><g transform="translate(-190,-142) scale(1,1)"><path fill="none" stroke="#000000" d="M 200 462 L 543 462" stroke-miterlimit="10"/></g><g transform="translate(-190,-142) scale(1,1)"><g><path fill="none" stroke="none"/><text fill="#000000" stroke="none" font-family="Arial" font-size="16px" font-style="normal" font-weight="bold" text-decoration="none" x="323.921875" y="446.5">CountDisplay</text></g></g><g transform="translate(-190,-142) scale(1,1)"><g><path fill="none" stroke="none"/><text fill="#000000" stroke="none" font-family="Arial" font-size="16px" font-style="normal" font-weight="normal" text-decoration="none" x="205" y="482.5">+multiDisplay()</text></g></g><g transform="translate(-190,-142) scale(1,1)"><rect fill="#C0C0C0" stroke="none" x="719" y="407" width="327" height="104" opacity="0.2"/></g><g transform="translate(-190,-142) scale(1,1)"><rect fill="#ffffff" stroke="none" x="712" y="400" width="327" height="104"/></g><g transform="translate(-190,-142) scale(1,1)"><path fill="none" stroke="#000000" d="M 712 400 L 1039 400 L 1039 504 L 712 504 L 712 400 Z Z" stroke-miterlimit="10"/></g><g transform="translate(-190,-142) scale(1,1)"><path fill="none" stroke="#000000" d="M 712 428 L 1039 428" stroke-miterlimit="10"/></g><g transform="translate(-190,-142) scale(1,1)"><path fill="none" stroke="#000000" d="M 712 438 L 1039 438" stroke-miterlimit="10"/></g><g transform="translate(-190,-142) scale(1,1)"><g><path fill="none" stroke="none"/><text fill="#000000" stroke="none" font-family="Arial" font-size="16px" font-style="normal" font-weight="bold" text-decoration="none" x="813.2578125" y="422.5">StringDisplayImpl</text></g></g><g transform="translate(-190,-142) scale(1,1)"><g><path fill="none" stroke="none"/><text fill="#000000" stroke="none" font-family="Arial" font-size="16px" font-style="normal" font-weight="normal" text-decoration="none" x="717" y="458.5">+rawOpen()</text></g></g><g transform="translate(-190,-142) scale(1,1)"><g><path fill="none" stroke="none"/><text fill="#000000" stroke="none" font-family="Arial" font-size="16px" font-style="normal" font-weight="normal" text-decoration="none" x="717" y="476.5">+rawPrint()</text></g></g><g transform="translate(-190,-142) scale(1,1)"><g><path fill="none" stroke="none"/><text fill="#000000" stroke="none" font-family="Arial" font-size="16px" font-style="normal" font-weight="normal" text-decoration="none" x="717" y="494.5">+rawClose()</text></g></g><g transform="translate(-190,-142) scale(1,1)"><path fill="none" stroke="#000000" d="M 371 423 L 371 297" stroke-miterlimit="10" stroke-dasharray="3"/></g><g transform="translate(-190,-142) scale(1,1)"><path fill="none" stroke="#000000" d="M 375.209517756016 307.16267485762415 L 371 297 L 366.790482243984 307.16267485762415" stroke-miterlimit="10"/></g><g transform="translate(-190,-142) scale(1,1)"><rect fill="#C0C0C0" stroke="none" x="719" y="183" width="327" height="104" opacity="0.2"/></g><g transform="translate(-190,-142) scale(1,1)"><rect fill="#ffffff" stroke="none" x="712" y="176" width="327" height="104"/></g><g transform="translate(-190,-142) scale(1,1)"><path fill="none" stroke="#000000" d="M 712 176 L 1039 176 L 1039 280 L 712 280 L 712 176 Z Z" stroke-miterlimit="10"/></g><g transform="translate(-190,-142) scale(1,1)"><path fill="none" stroke="#000000" d="M 712 204 L 1039 204" stroke-miterlimit="10"/></g><g transform="translate(-190,-142) scale(1,1)"><path fill="none" stroke="#000000" d="M 712 214 L 1039 214" stroke-miterlimit="10"/></g><g transform="translate(-190,-142) scale(1,1)"><g><path fill="none" stroke="none"/><text fill="#000000" stroke="none" font-family="Arial" font-size="16px" font-style="italic" font-weight="bold" text-decoration="none" x="834.15625" y="198.5">DisplayImpl</text></g></g><g transform="translate(-190,-142) scale(1,1)"><g><path fill="none" stroke="none"/><text fill="#000000" stroke="none" font-family="Arial" font-size="16px" font-style="italic" font-weight="normal" text-decoration="none" x="717" y="234.5">+rawOpen()</text></g></g><g transform="translate(-190,-142) scale(1,1)"><g><path fill="none" stroke="none"/><text fill="#000000" stroke="none" font-family="Arial" font-size="16px" font-style="italic" font-weight="normal" text-decoration="none" x="717" y="252.5">+rawPrint()</text></g></g><g transform="translate(-190,-142) scale(1,1)"><g><path fill="none" stroke="none"/><text fill="#000000" stroke="none" font-family="Arial" font-size="16px" font-style="italic" font-weight="normal" text-decoration="none" x="717" y="270.5">+rawClose()</text></g></g><g transform="translate(-190,-142) scale(1,1)"><path fill="none" stroke="#000000" d="M 711 227 L 536 225" stroke-miterlimit="10"/></g><g transform="translate(-190,-142) scale(1,1)"><path fill="#FFFFFF" stroke="none" d="M 546.2101168706072 220.90689439562777 L 536 225 L 546.1139056048778 229.32538014694921 L 557.9985634060322 225.2514121532118"/></g><g transform="translate(-190,-142) scale(1,1)"><path fill="none" stroke="#000000" d="M 546.2101168706072 220.90689439562777 L 536 225 L 546.1139056048778 229.32538014694921 L 557.9985634060322 225.2514121532118 L 546.2101168706072 220.90689439562777" stroke-miterlimit="10"/></g><g transform="translate(-190,-142) scale(1,1)"><path fill="none" stroke="#000000" d="M 875 399 L 875 281" stroke-miterlimit="10" stroke-dasharray="3"/></g><g transform="translate(-190,-142) scale(1,1)"><path fill="none" stroke="#000000" d="M 879.209517756016 291.16267485762415 L 875 281 L 870.790482243984 291.16267485762415" stroke-miterlimit="10"/></g></g></svg>