<svg version="1.1" xmlns="http://www.w3.org/2000/svg" xmlns:xlink="http://www.w3.org/1999/xlink" width="1211" height="501"><defs/><g><g transform="translate(-198,-198) scale(1,1)"><rect fill="#C0C0C0" stroke="none" x="215" y="247" width="159" height="79" opacity="0.2"/></g><g transform="translate(-198,-198) scale(1,1)"><rect fill="#ffffff" stroke="none" x="208" y="240" width="159" height="79"/></g><g transform="translate(-198,-198) scale(1,1)"><path fill="none" stroke="#000000" d="M 208 240 L 367 240 L 367 319 L 208 319 L 208 240 Z Z" stroke-miterlimit="10"/></g><g transform="translate(-198,-198) scale(1,1)"><path fill="none" stroke="#000000" d="M 208 268 L 367 268" stroke-miterlimit="10"/></g><g transform="translate(-198,-198) scale(1,1)"><path fill="none" stroke="#000000" d="M 208 278 L 367 278" stroke-miterlimit="10"/></g><g transform="translate(-198,-198) scale(1,1)"><g><path fill="none" stroke="none"/><text fill="#000000" stroke="none" font-family="Arial" font-size="16px" font-style="normal" font-weight="bold" text-decoration="none" x="270.16015625" y="262.5">Main</text></g></g><g transform="translate(-198,-198) scale(1,1)"><rect fill="#C0C0C0" stroke="none" x="511" y="215" width="215" height="143" opacity="0.2"/></g><g transform="translate(-198,-198) scale(1,1)"><rect fill="#ffffff" stroke="none" x="504" y="208" width="215" height="143"/></g><g transform="translate(-198,-198) scale(1,1)"><path fill="none" stroke="#000000" d="M 504 208 L 719 208 L 719 351 L 504 351 L 504 208 Z Z" stroke-miterlimit="10"/></g><g transform="translate(-198,-198) scale(1,1)"><path fill="none" stroke="#000000" d="M 504 236 L 719 236" stroke-miterlimit="10"/></g><g transform="translate(-198,-198) scale(1,1)"><path fill="none" stroke="#000000" d="M 504 262 L 719 262" stroke-miterlimit="10"/></g><g transform="translate(-198,-198) scale(1,1)"><g><path fill="none" stroke="none"/><text fill="#000000" stroke="none" font-family="Arial" font-size="16px" font-style="normal" font-weight="bold" text-decoration="none" x="583.49609375" y="230.5">Director</text></g></g><g transform="translate(-198,-198) scale(1,1)"><g><path fill="none" stroke="none"/><text fill="#000000" stroke="none" font-family="Arial" font-size="16px" font-style="normal" font-weight="normal" text-decoration="none" x="509" y="256.5">+builder</text></g></g><g transform="translate(-198,-198) scale(1,1)"><g><path fill="none" stroke="none"/><text fill="#000000" stroke="none" font-family="Arial" font-size="16px" font-style="normal" font-weight="normal" text-decoration="none" x="509" y="282.5">+Construct()</text></g></g><g transform="translate(-198,-198) scale(1,1)"><rect fill="#C0C0C0" stroke="none" x="895" y="231" width="343" height="135" opacity="0.2"/></g><g transform="translate(-198,-198) scale(1,1)"><rect fill="#ffffff" stroke="none" x="888" y="224" width="343" height="135"/></g><g transform="translate(-198,-198) scale(1,1)"><path fill="none" stroke="#000000" d="M 888 224 L 1231 224 L 1231 359 L 888 359 L 888 224 Z Z" stroke-miterlimit="10"/></g><g transform="translate(-198,-198) scale(1,1)"><path fill="none" stroke="#000000" d="M 888 252 L 1231 252" stroke-miterlimit="10"/></g><g transform="translate(-198,-198) scale(1,1)"><path fill="none" stroke="#000000" d="M 888 262 L 1231 262" stroke-miterlimit="10"/></g><g transform="translate(-198,-198) scale(1,1)"><g><path fill="none" stroke="none"/><text fill="#000000" stroke="none" font-family="Arial" font-size="16px" font-style="italic" font-weight="bold" text-decoration="none" x="1034.59765625" y="246.5">Builder</text></g></g><g transform="translate(-198,-198) scale(1,1)"><g><path fill="none" stroke="none"/><text fill="#000000" stroke="none" font-family="Arial" font-size="16px" font-style="italic" font-weight="normal" text-decoration="none" x="893" y="282.5">+makeTitle()</text></g></g><g transform="translate(-198,-198) scale(1,1)"><g><path fill="none" stroke="none"/><text fill="#000000" stroke="none" font-family="Arial" font-size="16px" font-style="italic" font-weight="normal" text-decoration="none" x="893" y="300.5">+makeString()</text></g></g><g transform="translate(-198,-198) scale(1,1)"><g><path fill="none" stroke="none"/><text fill="#000000" stroke="none" font-family="Arial" font-size="16px" font-style="italic" font-weight="normal" text-decoration="none" x="893" y="318.5">+makeItems()</text></g></g><g transform="translate(-198,-198) scale(1,1)"><g><path fill="none" stroke="none"/><text fill="#000000" stroke="none" font-family="Arial" font-size="16px" font-style="italic" font-weight="normal" text-decoration="none" x="893" y="336.5">+close()</text></g></g><g transform="translate(-198,-198) scale(1,1)"><rect fill="#C0C0C0" stroke="none" x="727" y="487" width="287" height="169" opacity="0.2"/></g><g transform="translate(-198,-198) scale(1,1)"><rect fill="#ffffff" stroke="none" x="720" y="480" width="287" height="169"/></g><g transform="translate(-198,-198) scale(1,1)"><path fill="none" stroke="#000000" d="M 720 480 L 1007 480 L 1007 649 L 720 649 L 720 480 Z Z" stroke-miterlimit="10"/></g><g transform="translate(-198,-198) scale(1,1)"><path fill="none" stroke="#000000" d="M 720 508 L 1007 508" stroke-miterlimit="10"/></g><g transform="translate(-198,-198) scale(1,1)"><path fill="none" stroke="#000000" d="M 720 552 L 1007 552" stroke-miterlimit="10"/></g><g transform="translate(-198,-198) scale(1,1)"><g><path fill="none" stroke="none"/><text fill="#000000" stroke="none" font-family="Arial" font-size="16px" font-style="normal" font-weight="bold" text-decoration="none" x="823.92578125" y="502.5">TextBuilder</text></g></g><g transform="translate(-198,-198) scale(1,1)"><g><path fill="none" stroke="none"/><text fill="#000000" stroke="none" font-family="Arial" font-size="16px" font-style="normal" font-weight="normal" text-decoration="none" x="725" y="528.5">-buffer</text></g></g><g transform="translate(-198,-198) scale(1,1)"><g><path fill="none" stroke="none"/><text fill="#000000" stroke="none" font-family="Arial" font-size="16px" font-style="normal" font-weight="normal" text-decoration="none" x="725" y="546.5">-i</text></g></g><g transform="translate(-198,-198) scale(1,1)"><g><path fill="none" stroke="none"/><text fill="#000000" stroke="none" font-family="Arial" font-size="16px" font-style="normal" font-weight="normal" text-decoration="none" x="725" y="572.5">+makeTitle()</text></g></g><g transform="translate(-198,-198) scale(1,1)"><g><path fill="none" stroke="none"/><text fill="#000000" stroke="none" font-family="Arial" font-size="16px" font-style="normal" font-weight="normal" text-decoration="none" x="725" y="590.5">+makeString()</text></g></g><g transform="translate(-198,-198) scale(1,1)"><g><path fill="none" stroke="none"/><text fill="#000000" stroke="none" font-family="Arial" font-size="16px" font-style="normal" font-weight="normal" text-decoration="none" x="725" y="608.5">+makeItems()</text></g></g><g transform="translate(-198,-198) scale(1,1)"><g><path fill="none" stroke="none"/><text fill="#000000" stroke="none" font-family="Arial" font-size="16px" font-style="normal" font-weight="normal" text-decoration="none" x="725" y="626.5">+close()</text></g></g><g transform="translate(-198,-198) scale(1,1)"><g><path fill="none" stroke="none"/><text fill="#000000" stroke="none" font-family="Arial" font-size="16px" font-style="normal" font-weight="normal" text-decoration="none" x="725" y="644.5">+getResult()</text></g></g><g transform="translate(-198,-198) scale(1,1)"><rect fill="#C0C0C0" stroke="none" x="1103" y="479" width="303" height="169" opacity="0.2"/></g><g transform="translate(-198,-198) scale(1,1)"><rect fill="#ffffff" stroke="none" x="1096" y="472" width="303" height="169"/></g><g transform="translate(-198,-198) scale(1,1)"><path fill="none" stroke="#000000" d="M 1096 472 L 1399 472 L 1399 641 L 1096 641 L 1096 472 Z Z" stroke-miterlimit="10"/></g><g transform="translate(-198,-198) scale(1,1)"><path fill="none" stroke="#000000" d="M 1096 500 L 1399 500" stroke-miterlimit="10"/></g><g transform="translate(-198,-198) scale(1,1)"><path fill="none" stroke="#000000" d="M 1096 544 L 1399 544" stroke-miterlimit="10"/></g><g transform="translate(-198,-198) scale(1,1)"><g><path fill="none" stroke="none"/><text fill="#000000" stroke="none" font-family="Arial" font-size="16px" font-style="normal" font-weight="bold" text-decoration="none" x="1200.8203125" y="494.5">HTMLBuilder</text></g></g><g transform="translate(-198,-198) scale(1,1)"><g><path fill="none" stroke="none"/><text fill="#000000" stroke="none" font-family="Arial" font-size="16px" font-style="normal" font-weight="normal" text-decoration="none" x="1101" y="520.5">+filename</text></g></g><g transform="translate(-198,-198) scale(1,1)"><g><path fill="none" stroke="none"/><text fill="#000000" stroke="none" font-family="Arial" font-size="16px" font-style="normal" font-weight="normal" text-decoration="none" x="1101" y="538.5">+writer</text></g></g><g transform="translate(-198,-198) scale(1,1)"><g><path fill="none" stroke="none"/><text fill="#000000" stroke="none" font-family="Arial" font-size="16px" font-style="normal" font-weight="normal" text-decoration="none" x="1101" y="564.5">+makeTitle()</text></g></g><g transform="translate(-198,-198) scale(1,1)"><g><path fill="none" stroke="none"/><text fill="#000000" stroke="none" font-family="Arial" font-size="16px" font-style="normal" font-weight="normal" text-decoration="none" x="1101" y="582.5">+makeString()</text></g></g><g transform="translate(-198,-198) scale(1,1)"><g><path fill="none" stroke="none"/><text fill="#000000" stroke="none" font-family="Arial" font-size="16px" font-style="normal" font-weight="normal" text-decoration="none" x="1101" y="600.5">+makeItems()</text></g></g><g transform="translate(-198,-198) scale(1,1)"><g><path fill="none" stroke="none"/><text fill="#000000" stroke="none" font-family="Arial" font-size="16px" font-style="normal" font-weight="normal" text-decoration="none" x="1101" y="618.5">+close()</text></g></g><g transform="translate(-198,-198) scale(1,1)"><g><path fill="none" stroke="none"/><text fill="#000000" stroke="none" font-family="Arial" font-size="16px" font-style="normal" font-weight="normal" text-decoration="none" x="1101" y="636.5">+getResult()</text></g></g><g transform="translate(-198,-198) scale(1,1)"><path fill="none" stroke="#000000" d="M 368 279 L 503 279" stroke-miterlimit="10"/></g><g transform="translate(-198,-198) scale(1,1)"><path fill="none" stroke="#000000" d="M 492.83732514237585 283.209517756016 L 503 279 L 492.83732514237585 274.790482243984" stroke-miterlimit="10"/></g><g transform="translate(-198,-198) scale(1,1)"><g><path fill="none" stroke="none"/><text fill="#000000" stroke="none" font-family="Arial" font-size="16px" font-style="normal" font-weight="normal" text-decoration="none" x="419.5" y="268.5">+uses</text></g></g><g transform="translate(-198,-198) scale(1,1)"><path fill="none" stroke="#000000" d="M 887 286 L 720 282" stroke-miterlimit="10"/></g><g transform="translate(-198,-198) scale(1,1)"><path fill="#FFFFFF" stroke="none" d="M 730.2605587961052 278.035036798195 L 720 282 L 730.0589630706407 286.45165833633786 L 741.9936919822366 282.5267950175386"/></g><g transform="translate(-198,-198) scale(1,1)"><path fill="none" stroke="#000000" d="M 730.2605587961052 278.035036798195 L 720 282 L 730.0589630706407 286.45165833633786 L 741.9936919822366 282.5267950175386 L 730.2605587961052 278.035036798195" stroke-miterlimit="10"/></g><g transform="translate(-198,-198) scale(1,1)"><path fill="none" stroke="#000000" d="M 864 479 L 864 432 L 1056 432 L 1058 360" stroke-miterlimit="10" stroke-dasharray="3"/></g><g transform="translate(-198,-198) scale(1,1)"><path fill="none" stroke="#000000" d="M 1061.9257069767937 370.27564230266665 L 1058 360 L 1053.5099176709793 370.0418703775052" stroke-miterlimit="10"/></g><g transform="translate(-198,-198) scale(1,1)"><path fill="none" stroke="#000000" d="M 1248 471 L 1248 432 L 1056 432 L 1058 360" stroke-miterlimit="10" stroke-dasharray="3"/></g><g transform="translate(-198,-198) scale(1,1)"><path fill="none" stroke="#000000" d="M 1061.9257069767937 370.27564230266665 L 1058 360 L 1053.5099176709793 370.0418703775052" stroke-miterlimit="10"/></g><g transform="translate(-198,-198) scale(1,1)"><path fill="none" stroke="#000000" d="M 287 320 L 288 568 L 719 565" stroke-miterlimit="10"/></g><g transform="translate(-198,-198) scale(1,1)"><path fill="none" stroke="#000000" d="M 708.8668711987915 569.2801519480176 L 719 565 L 708.8082714430767 560.8613203769809" stroke-miterlimit="10"/></g><g transform="translate(-198,-198) scale(1,1)"><g><path fill="none" stroke="none"/><text fill="#000000" stroke="none" font-family="Arial" font-size="16px" font-style="normal" font-weight="normal" text-decoration="none" x="607.5" y="559.5">+uses</text></g></g><g transform="translate(-198,-198) scale(1,1)"><path fill="none" stroke="#000000" d="M 287 320 L 288 688 L 1248 688 L 1248 642" stroke-miterlimit="10"/></g><g transform="translate(-198,-198) scale(1,1)"><path fill="none" stroke="#000000" d="M 1252.2095177560159 652.1626748576241 L 1248 642 L 1243.7904822439841 652.1626748576241" stroke-miterlimit="10"/></g><g transform="translate(-198,-198) scale(1,1)"><g><path fill="none" stroke="none"/><text fill="#000000" stroke="none" font-family="Arial" font-size="16px" font-style="normal" font-weight="normal" text-decoration="none" x="1179.5" y="680.5">+uses</text></g></g></g></svg>