<svg version="1.1" xmlns="http://www.w3.org/2000/svg" xmlns:xlink="http://www.w3.org/1999/xlink" width="819" height="443"><defs/><g><g transform="translate(-158,-150) scale(1,1)"><rect fill="#C0C0C0" stroke="none" x="383" y="167" width="271" height="128" opacity="0.2"/></g><g transform="translate(-158,-150) scale(1,1)"><rect fill="#ffffff" stroke="none" x="376" y="160" width="271" height="128"/></g><g transform="translate(-158,-150) scale(1,1)"><path fill="none" stroke="#000000" d="M 376 160 L 647 160 L 647 288 L 376 288 L 376 160 Z Z" stroke-miterlimit="10"/></g><g transform="translate(-158,-150) scale(1,1)"><path fill="none" stroke="#000000" d="M 376 190 L 647 190" stroke-miterlimit="10"/></g><g transform="translate(-158,-150) scale(1,1)"><path fill="none" stroke="#000000" d="M 376 200 L 647 200" stroke-miterlimit="10"/></g><g transform="translate(-158,-150) scale(1,1)"><g><path fill="none" stroke="none"/><text fill="#000000" stroke="none" font-family="Arial" font-size="18px" font-style="italic" font-weight="bold" text-decoration="none" x="490.494140625" y="184.5">Entry</text></g></g><g transform="translate(-158,-150) scale(1,1)"><g><path fill="none" stroke="none"/><text fill="#000000" stroke="none" font-family="Arial" font-size="18px" font-style="italic" font-weight="normal" text-decoration="none" x="381" y="222.5">+getName()</text></g></g><g transform="translate(-158,-150) scale(1,1)"><g><path fill="none" stroke="none"/><text fill="#000000" stroke="none" font-family="Arial" font-size="18px" font-style="italic" font-weight="normal" text-decoration="none" x="381" y="242.5">+getSize()</text></g></g><g transform="translate(-158,-150) scale(1,1)"><g><path fill="none" stroke="none"/><text fill="#000000" stroke="none" font-family="Arial" font-size="18px" font-style="italic" font-weight="normal" text-decoration="none" x="381" y="262.5">+printList()</text></g></g><g transform="translate(-158,-150) scale(1,1)"><g><path fill="none" stroke="none"/><text fill="#000000" stroke="none" font-family="Arial" font-size="18px" font-style="normal" font-weight="normal" text-decoration="none" x="381" y="282.5">+add()</text></g></g><g transform="translate(-158,-150) scale(1,1)"><rect fill="#C0C0C0" stroke="none" x="175" y="415" width="287" height="160" opacity="0.2"/></g><g transform="translate(-158,-150) scale(1,1)"><rect fill="#ffffff" stroke="none" x="168" y="408" width="287" height="160"/></g><g transform="translate(-158,-150) scale(1,1)"><path fill="none" stroke="#000000" d="M 168 408 L 455 408 L 455 568 L 168 568 L 168 408 Z Z" stroke-miterlimit="10"/></g><g transform="translate(-158,-150) scale(1,1)"><path fill="none" stroke="#000000" d="M 168 438 L 455 438" stroke-miterlimit="10"/></g><g transform="translate(-158,-150) scale(1,1)"><path fill="none" stroke="#000000" d="M 168 486 L 455 486" stroke-miterlimit="10"/></g><g transform="translate(-158,-150) scale(1,1)"><g><path fill="none" stroke="none"/><text fill="#000000" stroke="none" font-family="Arial" font-size="18px" font-style="normal" font-weight="bold" text-decoration="none" x="296.998046875" y="432.5">File</text></g></g><g transform="translate(-158,-150) scale(1,1)"><g><path fill="none" stroke="none"/><text fill="#000000" stroke="none" font-family="Arial" font-size="18px" font-style="normal" font-weight="normal" text-decoration="none" x="173" y="460.5">-name:String</text></g></g><g transform="translate(-158,-150) scale(1,1)"><g><path fill="none" stroke="none"/><text fill="#000000" stroke="none" font-family="Arial" font-size="18px" font-style="normal" font-weight="normal" text-decoration="none" x="173" y="480.5">-size:int</text></g></g><g transform="translate(-158,-150) scale(1,1)"><g><path fill="none" stroke="none"/><text fill="#000000" stroke="none" font-family="Arial" font-size="18px" font-style="normal" font-weight="normal" text-decoration="none" x="173" y="508.5">+getName()</text></g></g><g transform="translate(-158,-150) scale(1,1)"><g><path fill="none" stroke="none"/><text fill="#000000" stroke="none" font-family="Arial" font-size="18px" font-style="normal" font-weight="normal" text-decoration="none" x="173" y="528.5">+getSize()</text></g></g><g transform="translate(-158,-150) scale(1,1)"><g><path fill="none" stroke="none"/><text fill="#000000" stroke="none" font-family="Arial" font-size="18px" font-style="normal" font-weight="normal" text-decoration="none" x="173" y="548.5">+printList()</text></g></g><g transform="translate(-158,-150) scale(1,1)"><rect fill="#C0C0C0" stroke="none" x="591" y="415" width="383" height="175" opacity="0.2"/></g><g transform="translate(-158,-150) scale(1,1)"><rect fill="#ffffff" stroke="none" x="584" y="408" width="383" height="175"/></g><g transform="translate(-158,-150) scale(1,1)"><path fill="none" stroke="#000000" d="M 584 408 L 967 408 L 967 583 L 584 583 L 584 408 Z Z" stroke-miterlimit="10"/></g><g transform="translate(-158,-150) scale(1,1)"><path fill="none" stroke="#000000" d="M 584 438 L 967 438" stroke-miterlimit="10"/></g><g transform="translate(-158,-150) scale(1,1)"><path fill="none" stroke="#000000" d="M 584 486 L 967 486" stroke-miterlimit="10"/></g><g transform="translate(-158,-150) scale(1,1)"><g><path fill="none" stroke="none"/><text fill="#000000" stroke="none" font-family="Arial" font-size="18px" font-style="normal" font-weight="bold" text-decoration="none" x="739.49560546875" y="432.5">Directory</text></g></g><g transform="translate(-158,-150) scale(1,1)"><g><path fill="none" stroke="none"/><text fill="#000000" stroke="none" font-family="Arial" font-size="18px" font-style="normal" font-weight="normal" text-decoration="none" x="589" y="460.5">-name:String</text></g></g><g transform="translate(-158,-150) scale(1,1)"><g><path fill="none" stroke="none"/><text fill="#000000" stroke="none" font-family="Arial" font-size="18px" font-style="normal" font-weight="normal" text-decoration="none" x="589" y="480.5">-directory:ArrayList</text></g></g><g transform="translate(-158,-150) scale(1,1)"><g><path fill="none" stroke="none"/><text fill="#000000" stroke="none" font-family="Arial" font-size="18px" font-style="normal" font-weight="normal" text-decoration="none" x="589" y="508.5">+getName()</text></g></g><g transform="translate(-158,-150) scale(1,1)"><g><path fill="none" stroke="none"/><text fill="#000000" stroke="none" font-family="Arial" font-size="18px" font-style="normal" font-weight="normal" text-decoration="none" x="589" y="528.5">+getSize()</text></g></g><g transform="translate(-158,-150) scale(1,1)"><g><path fill="none" stroke="none"/><text fill="#000000" stroke="none" font-family="Arial" font-size="18px" font-style="normal" font-weight="normal" text-decoration="none" x="589" y="548.5">+printList()</text></g></g><g transform="translate(-158,-150) scale(1,1)"><g><path fill="none" stroke="none"/><text fill="#000000" stroke="none" font-family="Arial" font-size="18px" font-style="normal" font-weight="normal" text-decoration="none" x="589" y="568.5">+add()</text></g></g><g transform="translate(-158,-150) scale(1,1)"><path fill="none" stroke="#000000" d="M 312 407 L 312 376 L 512 376 L 511 289" stroke-miterlimit="10" stroke-dasharray="3"/></g><g transform="translate(-158,-150) scale(1,1)"><path fill="none" stroke="#000000" d="M 515.3260443463025 299.11362152316485 L 511 289 L 506.9075649316001 299.21038565436834" stroke-miterlimit="10"/></g><g transform="translate(-158,-150) scale(1,1)"><path fill="none" stroke="#000000" d="M 776 407 L 776 376 L 512 376 L 511 289" stroke-miterlimit="10" stroke-dasharray="3"/></g><g transform="translate(-158,-150) scale(1,1)"><path fill="none" stroke="#000000" d="M 515.3260443463025 299.11362152316485 L 511 289 L 506.9075649316001 299.21038565436834" stroke-miterlimit="10"/></g></g></svg>