<svg version="1.1" xmlns="http://www.w3.org/2000/svg" xmlns:xlink="http://www.w3.org/1999/xlink" width="708" height="611"><defs/><g><g transform="translate(-254,-334) scale(1,1)"><rect fill="#C0C0C0" stroke="none" x="279" y="351" width="272" height="15" opacity="0.2"/></g><g transform="translate(-254,-334) scale(1,1)"><rect fill="#C0C0C0" stroke="none" x="279" y="365" width="680" height="234" opacity="0.2"/></g><g transform="translate(-254,-334) scale(1,1)"><rect fill="#ffffff" stroke="none" x="272" y="359" width="680" height="233"/></g><g transform="translate(-254,-334) scale(1,1)"><path fill="none" stroke="#000000" d="M 272 359 L 952 359 L 952 592 L 272 592 L 272 359 Z Z" stroke-miterlimit="10"/></g><g transform="translate(-254,-334) scale(1,1)"><rect fill="#ffffff" stroke="none" x="272" y="344" width="272" height="15"/></g><g transform="translate(-254,-334) scale(1,1)"><path fill="none" stroke="#000000" d="M 272 344 L 544 344 L 544 359 L 272 359 L 272 344 Z Z" stroke-miterlimit="10"/></g><g transform="translate(-254,-334) scale(1,1)"><rect fill="#ffffff" stroke="none" x="272" y="358" width="680" height="234"/></g><g transform="translate(-254,-334) scale(1,1)"><path fill="none" stroke="#000000" d="M 272 358 L 952 358 L 952 592 L 272 592 L 272 358 Z Z" stroke-miterlimit="10"/></g><g transform="translate(-254,-334) scale(1,1)"><g><path fill="none" stroke="none"/><text fill="#000000" stroke="none" font-family="Arial" font-size="16px" font-style="normal" font-weight="bold" text-decoration="none" x="574.66015625" y="381.5">framework</text></g></g><g transform="translate(-254,-334) scale(1,1)"><rect fill="#C0C0C0" stroke="none" x="343" y="431" width="176" height="99" opacity="0.2"/></g><g transform="translate(-254,-334) scale(1,1)"><rect fill="#ffffff" stroke="none" x="336" y="424" width="176" height="99"/></g><g transform="translate(-254,-334) scale(1,1)"><path fill="none" stroke="#000000" d="M 336 424 L 512 424 L 512 523 L 336 523 L 336 424 Z Z" stroke-miterlimit="10"/></g><g transform="translate(-254,-334) scale(1,1)"><path fill="none" stroke="#000000" d="M 336 452 L 512 452" stroke-miterlimit="10"/></g><g transform="translate(-254,-334) scale(1,1)"><path fill="none" stroke="#000000" d="M 336 462 L 512 462" stroke-miterlimit="10"/></g><g transform="translate(-254,-334) scale(1,1)"><g><path fill="none" stroke="none"/><text fill="#000000" stroke="none" font-family="Arial" font-size="16px" font-style="italic" font-weight="bold" text-decoration="none" x="397.328125" y="446.5">Factory</text></g></g><g transform="translate(-254,-334) scale(1,1)"><g><path fill="none" stroke="none"/><text fill="#000000" stroke="none" font-family="Arial" font-size="16px" font-style="normal" font-weight="normal" text-decoration="none" x="341" y="482.5">+create()</text></g></g><g transform="translate(-254,-334) scale(1,1)"><g><path fill="none" stroke="none"/><text fill="#000000" stroke="none" font-family="Arial" font-size="16px" font-style="italic" font-weight="normal" text-decoration="none" x="341" y="500.5">#createProduct()</text></g></g><g transform="translate(-254,-334) scale(1,1)"><g><path fill="none" stroke="none"/><text fill="#000000" stroke="none" font-family="Arial" font-size="16px" font-style="italic" font-weight="normal" text-decoration="none" x="341" y="518.5">#registerProduct()</text></g></g><g transform="translate(-254,-334) scale(1,1)"><rect fill="#C0C0C0" stroke="none" x="631" y="431" width="240" height="95" opacity="0.2"/></g><g transform="translate(-254,-334) scale(1,1)"><rect fill="#ffffff" stroke="none" x="624" y="424" width="240" height="95"/></g><g transform="translate(-254,-334) scale(1,1)"><path fill="none" stroke="#000000" d="M 624 424 L 864 424 L 864 519 L 624 519 L 624 424 Z Z" stroke-miterlimit="10"/></g><g transform="translate(-254,-334) scale(1,1)"><path fill="none" stroke="#000000" d="M 624 452 L 864 452" stroke-miterlimit="10"/></g><g transform="translate(-254,-334) scale(1,1)"><path fill="none" stroke="#000000" d="M 624 462 L 864 462" stroke-miterlimit="10"/></g><g transform="translate(-254,-334) scale(1,1)"><g><path fill="none" stroke="none"/><text fill="#000000" stroke="none" font-family="Arial" font-size="16px" font-style="italic" font-weight="bold" text-decoration="none" x="716.4296875" y="446.5">Product</text></g></g><g transform="translate(-254,-334) scale(1,1)"><g><path fill="none" stroke="none"/><text fill="#000000" stroke="none" font-family="Arial" font-size="16px" font-style="italic" font-weight="normal" text-decoration="none" x="629" y="482.5">+use()</text></g></g><g transform="translate(-254,-334) scale(1,1)"><path fill="none" stroke="#000000" d="M 513 472 L 623 472" stroke-miterlimit="10"/></g><g transform="translate(-254,-334) scale(1,1)"><path fill="none" stroke="#000000" d="M 612.8373251423759 476.209517756016 L 623 472 L 612.8373251423758 467.790482243984" stroke-miterlimit="10"/></g><g transform="translate(-254,-334) scale(1,1)"><g><path fill="none" stroke="none"/><text fill="#000000" stroke="none" font-family="Arial" font-size="16px" font-style="normal" font-weight="normal" text-decoration="none" x="535.5" y="461.5">+creates</text></g></g><g transform="translate(-254,-334) scale(1,1)"><rect fill="#C0C0C0" stroke="none" x="271" y="687" width="274.79999999999995" height="15" opacity="0.2"/></g><g transform="translate(-254,-334) scale(1,1)"><rect fill="#C0C0C0" stroke="none" x="271" y="701" width="687" height="241" opacity="0.2"/></g><g transform="translate(-254,-334) scale(1,1)"><rect fill="#ffffff" stroke="none" x="264" y="695" width="687" height="240"/></g><g transform="translate(-254,-334) scale(1,1)"><path fill="none" stroke="#000000" d="M 264 695 L 951 695 L 951 935 L 264 935 L 264 695 Z Z" stroke-miterlimit="10"/></g><g transform="translate(-254,-334) scale(1,1)"><rect fill="#ffffff" stroke="none" x="264" y="680" width="274.79999999999995" height="15"/></g><g transform="translate(-254,-334) scale(1,1)"><path fill="none" stroke="#000000" d="M 264 680 L 538.8 680 L 538.8 695 L 264 695 L 264 680 Z Z" stroke-miterlimit="10"/></g><g transform="translate(-254,-334) scale(1,1)"><rect fill="#ffffff" stroke="none" x="264" y="694" width="687" height="241"/></g><g transform="translate(-254,-334) scale(1,1)"><path fill="none" stroke="#000000" d="M 264 694 L 951 694 L 951 935 L 264 935 L 264 694 Z Z" stroke-miterlimit="10"/></g><g transform="translate(-254,-334) scale(1,1)"><g><path fill="none" stroke="none"/><text fill="#000000" stroke="none" font-family="Arial" font-size="16px" font-style="normal" font-weight="bold" text-decoration="none" x="585.7109375" y="717.5">idcard</text></g></g><g transform="translate(-254,-334) scale(1,1)"><rect fill="#C0C0C0" stroke="none" x="335" y="751" width="183" height="119" opacity="0.2"/></g><g transform="translate(-254,-334) scale(1,1)"><rect fill="#ffffff" stroke="none" x="328" y="744" width="183" height="119"/></g><g transform="translate(-254,-334) scale(1,1)"><path fill="none" stroke="#000000" d="M 328 744 L 511 744 L 511 863 L 328 863 L 328 744 Z Z" stroke-miterlimit="10"/></g><g transform="translate(-254,-334) scale(1,1)"><path fill="none" stroke="#000000" d="M 328 772 L 511 772" stroke-miterlimit="10"/></g><g transform="translate(-254,-334) scale(1,1)"><path fill="none" stroke="#000000" d="M 328 798 L 511 798" stroke-miterlimit="10"/></g><g transform="translate(-254,-334) scale(1,1)"><g><path fill="none" stroke="none"/><text fill="#000000" stroke="none" font-family="Arial" font-size="16px" font-style="normal" font-weight="bold" text-decoration="none" x="367.48828125" y="766.5">IDCardFactory</text></g></g><g transform="translate(-254,-334) scale(1,1)"><g><path fill="none" stroke="none"/><text fill="#000000" stroke="none" font-family="Arial" font-size="16px" font-style="normal" font-weight="normal" text-decoration="none" x="333" y="792.5">-owners</text></g></g><g transform="translate(-254,-334) scale(1,1)"><g><path fill="none" stroke="none"/><text fill="#000000" stroke="none" font-family="Arial" font-size="16px" font-style="normal" font-weight="normal" text-decoration="none" x="333" y="818.5">#createProduct()</text></g></g><g transform="translate(-254,-334) scale(1,1)"><g><path fill="none" stroke="none"/><text fill="#000000" stroke="none" font-family="Arial" font-size="16px" font-style="normal" font-weight="normal" text-decoration="none" x="333" y="836.5">#registerProduct()</text></g></g><g transform="translate(-254,-334) scale(1,1)"><g><path fill="none" stroke="none"/><text fill="#000000" stroke="none" font-family="Arial" font-size="16px" font-style="normal" font-weight="normal" text-decoration="none" x="333" y="854.5">+getOwners()</text></g></g><g transform="translate(-254,-334) scale(1,1)"><rect fill="#C0C0C0" stroke="none" x="631" y="767" width="231" height="97" opacity="0.2"/></g><g transform="translate(-254,-334) scale(1,1)"><rect fill="#ffffff" stroke="none" x="624" y="760" width="231" height="97"/></g><g transform="translate(-254,-334) scale(1,1)"><path fill="none" stroke="#000000" d="M 624 760 L 855 760 L 855 857 L 624 857 L 624 760 Z Z" stroke-miterlimit="10"/></g><g transform="translate(-254,-334) scale(1,1)"><path fill="none" stroke="#000000" d="M 624 788 L 855 788" stroke-miterlimit="10"/></g><g transform="translate(-254,-334) scale(1,1)"><path fill="none" stroke="#000000" d="M 624 814 L 855 814" stroke-miterlimit="10"/></g><g transform="translate(-254,-334) scale(1,1)"><g><path fill="none" stroke="none"/><text fill="#000000" stroke="none" font-family="Arial" font-size="16px" font-style="normal" font-weight="bold" text-decoration="none" x="714.16015625" y="782.5">IDCard</text></g></g><g transform="translate(-254,-334) scale(1,1)"><g><path fill="none" stroke="none"/><text fill="#000000" stroke="none" font-family="Arial" font-size="16px" font-style="normal" font-weight="normal" text-decoration="none" x="629" y="808.5">-owner</text></g></g><g transform="translate(-254,-334) scale(1,1)"><g><path fill="none" stroke="none"/><text fill="#000000" stroke="none" font-family="Arial" font-size="16px" font-style="normal" font-weight="normal" text-decoration="none" x="629" y="834.5">+use()</text></g></g><g transform="translate(-254,-334) scale(1,1)"><g><path fill="none" stroke="none"/><text fill="#000000" stroke="none" font-family="Arial" font-size="16px" font-style="normal" font-weight="normal" text-decoration="none" x="629" y="852.5">+getOwner()</text></g></g><g transform="translate(-254,-334) scale(1,1)"><path fill="none" stroke="#000000" d="M 512 804 L 623 806" stroke-miterlimit="10"/></g><g transform="translate(-254,-334) scale(1,1)"><path fill="none" stroke="#000000" d="M 612.763139533876 810.0257530720485 L 623 806 L 612.9148092497152 801.6080838429713" stroke-miterlimit="10"/></g><g transform="translate(-254,-334) scale(1,1)"><g><path fill="none" stroke="none"/><text fill="#000000" stroke="none" font-family="Arial" font-size="16px" font-style="normal" font-weight="normal" text-decoration="none" x="536.5" y="797.5">+creates</text></g></g><g transform="translate(-254,-334) scale(1,1)"><path fill="none" stroke="#000000" d="M 420 743 L 423 524" stroke-miterlimit="10"/></g><g transform="translate(-254,-334) scale(1,1)"><path fill="#FFFFFF" stroke="none" d="M 431.1398423689502 544.4387613667914 L 423 524 L 414.30335097536243 544.208124498386"/></g><g transform="translate(-254,-334) scale(1,1)"><path fill="none" stroke="#000000" d="M 431.1398423689502 544.4387613667914 L 423 524 L 414.30335097536243 544.208124498386 L 431.1398423689502 544.4387613667914" stroke-miterlimit="10"/></g><g transform="translate(-254,-334) scale(1,1)"><path fill="none" stroke="#000000" d="M 740 759 L 743 520" stroke-miterlimit="10"/></g><g transform="translate(-254,-334) scale(1,1)"><path fill="#FFFFFF" stroke="none" d="M 751.1632625217077 540.4294186163405 L 743 520 L 734.3265178463924 540.2180787250186"/></g><g transform="translate(-254,-334) scale(1,1)"><path fill="none" stroke="#000000" d="M 751.1632625217077 540.4294186163405 L 743 520 L 734.3265178463924 540.2180787250186 L 751.1632625217077 540.4294186163405" stroke-miterlimit="10"/></g></g></svg>