<svg version="1.1" xmlns="http://www.w3.org/2000/svg" xmlns:xlink="http://www.w3.org/1999/xlink" width="635" height="540"><defs/><g><g transform="translate(-206,-230) scale(1,1)"><rect fill="#C0C0C0" stroke="none" x="223" y="439" width="184" height="160" opacity="0.2"/></g><g transform="translate(-206,-230) scale(1,1)"><rect fill="#ffffff" stroke="none" x="216" y="432" width="184" height="160"/></g><g transform="translate(-206,-230) scale(1,1)"><path fill="none" stroke="#000000" d="M 216 432 L 400 432 L 400 592 L 216 592 L 216 432 Z Z" stroke-miterlimit="10"/></g><g transform="translate(-206,-230) scale(1,1)"><path fill="none" stroke="#000000" d="M 216 460 L 400 460" stroke-miterlimit="10"/></g><g transform="translate(-206,-230) scale(1,1)"><path fill="none" stroke="#000000" d="M 216 504 L 400 504" stroke-miterlimit="10"/></g><g transform="translate(-206,-230) scale(1,1)"><g><path fill="none" stroke="none"/><text fill="#000000" stroke="none" font-family="Arial" font-size="16px" font-style="normal" font-weight="bold" text-decoration="none" x="271.53125" y="454.5">BookShelf</text></g></g><g transform="translate(-206,-230) scale(1,1)"><g><path fill="none" stroke="none"/><text fill="#000000" stroke="none" font-family="Arial" font-size="16px" font-style="normal" font-weight="normal" text-decoration="none" x="221" y="480.5">+books</text></g></g><g transform="translate(-206,-230) scale(1,1)"><g><path fill="none" stroke="none"/><text fill="#000000" stroke="none" font-family="Arial" font-size="16px" font-style="normal" font-weight="normal" text-decoration="none" x="221" y="498.5">+last</text></g></g><g transform="translate(-206,-230) scale(1,1)"><g><path fill="none" stroke="none"/><text fill="#000000" stroke="none" font-family="Arial" font-size="16px" font-style="normal" font-weight="normal" text-decoration="none" x="221" y="524.5">+getBookAt()</text></g></g><g transform="translate(-206,-230) scale(1,1)"><g><path fill="none" stroke="none"/><text fill="#000000" stroke="none" font-family="Arial" font-size="16px" font-style="normal" font-weight="normal" text-decoration="none" x="221" y="542.5">+getLength()</text></g></g><g transform="translate(-206,-230) scale(1,1)"><g><path fill="none" stroke="none"/><text fill="#000000" stroke="none" font-family="Arial" font-size="16px" font-style="normal" font-weight="normal" text-decoration="none" x="221" y="560.5">+appendBook()</text></g></g><g transform="translate(-206,-230) scale(1,1)"><g><path fill="none" stroke="none"/><text fill="#000000" stroke="none" font-family="Arial" font-size="16px" font-style="normal" font-weight="normal" text-decoration="none" x="221" y="578.5">+iterator()</text></g></g><g transform="translate(-206,-230) scale(1,1)"><rect fill="#C0C0C0" stroke="none" x="231" y="247" width="176" height="80" opacity="0.2"/></g><g transform="translate(-206,-230) scale(1,1)"><rect fill="#ffffff" stroke="none" x="224" y="240" width="176" height="80"/></g><g transform="translate(-206,-230) scale(1,1)"><path fill="none" stroke="#000000" d="M 224 240 L 400 240 L 400 320 L 224 320 L 224 240 Z Z" stroke-miterlimit="10"/></g><g transform="translate(-206,-230) scale(1,1)"><path fill="none" stroke="#000000" d="M 224 284 L 400 284" stroke-miterlimit="10"/></g><g transform="translate(-206,-230) scale(1,1)"><g><path fill="none" stroke="none"/><text fill="#000000" stroke="none" font-family="Arial" font-size="16px" font-style="normal" font-weight="normal" text-decoration="none" x="272.41796875" y="260.5">«interface»</text></g></g><g transform="translate(-206,-230) scale(1,1)"><g><path fill="none" stroke="none"/><text fill="#000000" stroke="none" font-family="Arial" font-size="16px" font-style="italic" font-weight="bold" text-decoration="none" x="275.08203125" y="278.5">Aggregate</text></g></g><g transform="translate(-206,-230) scale(1,1)"><g><path fill="none" stroke="none"/><text fill="#000000" stroke="none" font-family="Arial" font-size="16px" font-style="italic" font-weight="normal" text-decoration="none" x="229" y="304.5">+iterator()</text></g></g><g transform="translate(-206,-230) scale(1,1)"><path fill="none" stroke="#000000" d="M 309 431 L 311 321" stroke-miterlimit="10" stroke-dasharray="3"/></g><g transform="translate(-206,-230) scale(1,1)"><path fill="#FFFFFF" stroke="none" d="M 319.04815353563754 341.47503906386515 L 311 321 L 302.2128649739613 341.16894290819835"/></g><g transform="translate(-206,-230) scale(1,1)"><path fill="none" stroke="#000000" d="M 319.04815353563754 341.47503906386515 L 311 321 L 302.2128649739613 341.16894290819835 L 319.04815353563754 341.47503906386515" stroke-miterlimit="10"/></g><g transform="translate(-206,-230) scale(1,1)"><rect fill="#C0C0C0" stroke="none" x="247" y="671" width="135" height="96" opacity="0.2"/></g><g transform="translate(-206,-230) scale(1,1)"><rect fill="#ffffff" stroke="none" x="240" y="664" width="135" height="96"/></g><g transform="translate(-206,-230) scale(1,1)"><path fill="none" stroke="#000000" d="M 240 664 L 375 664 L 375 760 L 240 760 L 240 664 Z Z" stroke-miterlimit="10"/></g><g transform="translate(-206,-230) scale(1,1)"><path fill="none" stroke="#000000" d="M 240 692 L 375 692" stroke-miterlimit="10"/></g><g transform="translate(-206,-230) scale(1,1)"><path fill="none" stroke="#000000" d="M 240 718 L 375 718" stroke-miterlimit="10"/></g><g transform="translate(-206,-230) scale(1,1)"><g><path fill="none" stroke="none"/><text fill="#000000" stroke="none" font-family="Arial" font-size="16px" font-style="normal" font-weight="bold" text-decoration="none" x="289.265625" y="686.5">Book</text></g></g><g transform="translate(-206,-230) scale(1,1)"><g><path fill="none" stroke="none"/><text fill="#000000" stroke="none" font-family="Arial" font-size="16px" font-style="normal" font-weight="normal" text-decoration="none" x="245" y="712.5">+name</text></g></g><g transform="translate(-206,-230) scale(1,1)"><g><path fill="none" stroke="none"/><text fill="#000000" stroke="none" font-family="Arial" font-size="16px" font-style="normal" font-weight="normal" text-decoration="none" x="245" y="738.5">+getName()</text></g></g><g transform="translate(-206,-230) scale(1,1)"><path fill="none" stroke="#000000" d="M 307 663 L 308 593" stroke-miterlimit="10"/></g><g transform="translate(-206,-230) scale(1,1)"><path fill="#FFFFFF" stroke="none" d="M 312.06392202185606 603.2217678412431 L 308 593 L 303.6457454636101 603.1015081761254 L 307.6857463507773 614.9977554455892"/></g><g transform="translate(-206,-230) scale(1,1)"><path fill="none" stroke="#000000" d="M 312.06392202185606 603.2217678412431 L 308 593 L 303.6457454636101 603.1015081761254 L 307.6857463507773 614.9977554455892 L 312.06392202185606 603.2217678412431" stroke-miterlimit="10"/></g><g transform="translate(-206,-230) scale(1,1)"><rect fill="#C0C0C0" stroke="none" x="599" y="247" width="239" height="87" opacity="0.2"/></g><g transform="translate(-206,-230) scale(1,1)"><rect fill="#ffffff" stroke="none" x="592" y="240" width="239" height="87"/></g><g transform="translate(-206,-230) scale(1,1)"><path fill="none" stroke="#000000" d="M 592 240 L 831 240 L 831 327 L 592 327 L 592 240 Z Z" stroke-miterlimit="10"/></g><g transform="translate(-206,-230) scale(1,1)"><path fill="none" stroke="#000000" d="M 592 284 L 831 284" stroke-miterlimit="10"/></g><g transform="translate(-206,-230) scale(1,1)"><g><path fill="none" stroke="none"/><text fill="#000000" stroke="none" font-family="Arial" font-size="16px" font-style="normal" font-weight="normal" text-decoration="none" x="671.91796875" y="260.5">«interface»</text></g></g><g transform="translate(-206,-230) scale(1,1)"><g><path fill="none" stroke="none"/><text fill="#000000" stroke="none" font-family="Arial" font-size="16px" font-style="italic" font-weight="bold" text-decoration="none" x="686.15625" y="278.5">Iterator</text></g></g><g transform="translate(-206,-230) scale(1,1)"><g><path fill="none" stroke="none"/><text fill="#000000" stroke="none" font-family="Arial" font-size="16px" font-style="italic" font-weight="normal" text-decoration="none" x="597" y="304.5">+hasNext()</text></g></g><g transform="translate(-206,-230) scale(1,1)"><g><path fill="none" stroke="none"/><text fill="#000000" stroke="none" font-family="Arial" font-size="16px" font-style="italic" font-weight="normal" text-decoration="none" x="597" y="322.5">+next()</text></g></g><g transform="translate(-206,-230) scale(1,1)"><path fill="none" stroke="#000000" d="M 401 281 L 591 282" stroke-miterlimit="10"/></g><g transform="translate(-206,-230) scale(1,1)"><path fill="none" stroke="#000000" d="M 580.815310846965 286.15597243206105 L 591 282 L 580.8596209464772 277.73705352474656" stroke-miterlimit="10"/></g><g transform="translate(-206,-230) scale(1,1)"><g><path fill="none" stroke="none"/><text fill="#000000" stroke="none" font-family="Arial" font-size="16px" font-style="normal" font-weight="normal" text-decoration="none" x="465.5" y="273.5">+creates</text></g></g><g transform="translate(-206,-230) scale(1,1)"><rect fill="#C0C0C0" stroke="none" x="615" y="447" width="207" height="151" opacity="0.2"/></g><g transform="translate(-206,-230) scale(1,1)"><rect fill="#ffffff" stroke="none" x="608" y="440" width="207" height="151"/></g><g transform="translate(-206,-230) scale(1,1)"><path fill="none" stroke="#000000" d="M 608 440 L 815 440 L 815 591 L 608 591 L 608 440 Z Z" stroke-miterlimit="10"/></g><g transform="translate(-206,-230) scale(1,1)"><path fill="none" stroke="#000000" d="M 608 468 L 815 468" stroke-miterlimit="10"/></g><g transform="translate(-206,-230) scale(1,1)"><path fill="none" stroke="#000000" d="M 608 512 L 815 512" stroke-miterlimit="10"/></g><g transform="translate(-206,-230) scale(1,1)"><g><path fill="none" stroke="none"/><text fill="#000000" stroke="none" font-family="Arial" font-size="16px" font-style="normal" font-weight="bold" text-decoration="none" x="649.6875" y="462.5">BookShelfIterator</text></g></g><g transform="translate(-206,-230) scale(1,1)"><g><path fill="none" stroke="none"/><text fill="#000000" stroke="none" font-family="Arial" font-size="16px" font-style="normal" font-weight="normal" text-decoration="none" x="613" y="488.5">+bookShelf</text></g></g><g transform="translate(-206,-230) scale(1,1)"><g><path fill="none" stroke="none"/><text fill="#000000" stroke="none" font-family="Arial" font-size="16px" font-style="normal" font-weight="normal" text-decoration="none" x="613" y="506.5">+index</text></g></g><g transform="translate(-206,-230) scale(1,1)"><g><path fill="none" stroke="none"/><text fill="#000000" stroke="none" font-family="Arial" font-size="16px" font-style="normal" font-weight="normal" text-decoration="none" x="613" y="532.5">+hasNext()</text></g></g><g transform="translate(-206,-230) scale(1,1)"><g><path fill="none" stroke="none"/><text fill="#000000" stroke="none" font-family="Arial" font-size="16px" font-style="normal" font-weight="normal" text-decoration="none" x="613" y="550.5">+Next()</text></g></g><g transform="translate(-206,-230) scale(1,1)"><path fill="none" stroke="#000000" d="M 711 439 L 711 328" stroke-miterlimit="10" stroke-dasharray="3"/></g><g transform="translate(-206,-230) scale(1,1)"><path fill="#FFFFFF" stroke="none" d="M 719.419035512032 348.3253497152483 L 711 328 L 702.580964487968 348.3253497152483"/></g><g transform="translate(-206,-230) scale(1,1)"><path fill="none" stroke="#000000" d="M 719.419035512032 348.3253497152483 L 711 328 L 702.580964487968 348.3253497152483 L 719.419035512032 348.3253497152483" stroke-miterlimit="10"/></g><g transform="translate(-206,-230) scale(1,1)"><path fill="none" stroke="#000000" d="M 401 513 L 607 514" stroke-miterlimit="10"/></g><g transform="translate(-206,-230) scale(1,1)"><path fill="#FFFFFF" stroke="none" d="M 596.8170105700076 518.1601353666273 L 607 514 L 596.8578791929053 509.74119904969757 L 585.0002592092939 513.8932051417927"/></g><g transform="translate(-206,-230) scale(1,1)"><path fill="none" stroke="#000000" d="M 596.8170105700076 518.1601353666273 L 607 514 L 596.8578791929053 509.74119904969757 L 585.0002592092939 513.8932051417927 L 596.8170105700076 518.1601353666273" stroke-miterlimit="10"/></g></g></svg>