<svg version="1.1" xmlns="http://www.w3.org/2000/svg" xmlns:xlink="http://www.w3.org/1999/xlink" width="939" height="372"><defs/><g><g transform="translate(-214,-198) scale(1,1)"><rect fill="#C0C0C0" stroke="none" x="655" y="215" width="335" height="104" opacity="0.2"/></g><g transform="translate(-214,-198) scale(1,1)"><rect fill="#ffffff" stroke="none" x="648" y="208" width="335" height="104"/></g><g transform="translate(-214,-198) scale(1,1)"><path fill="none" stroke="#000000" d="M 648 208 L 983 208 L 983 312 L 648 312 L 648 208 Z Z" stroke-miterlimit="10"/></g><g transform="translate(-214,-198) scale(1,1)"><path fill="none" stroke="#000000" d="M 648 252 L 983 252" stroke-miterlimit="10"/></g><g transform="translate(-214,-198) scale(1,1)"><g><path fill="none" stroke="none"/><text fill="#000000" stroke="none" font-family="Arial" font-size="16px" font-style="normal" font-weight="normal" text-decoration="none" x="775.91796875" y="228.5">«interface»</text></g></g><g transform="translate(-214,-198) scale(1,1)"><g><path fill="none" stroke="none"/><text fill="#000000" stroke="none" font-family="Arial" font-size="16px" font-style="italic" font-weight="bold" text-decoration="none" x="787.9296875" y="246.5">Product</text></g></g><g transform="translate(-214,-198) scale(1,1)"><g><path fill="none" stroke="none"/><text fill="#000000" stroke="none" font-family="Arial" font-size="16px" font-style="italic" font-weight="normal" text-decoration="none" x="653" y="272.5">+use()</text></g></g><g transform="translate(-214,-198) scale(1,1)"><g><path fill="none" stroke="none"/><text fill="#000000" stroke="none" font-family="Arial" font-size="16px" font-style="italic" font-weight="normal" text-decoration="none" x="653" y="290.5">+createClone()</text></g></g><g transform="translate(-214,-198) scale(1,1)"><rect fill="#C0C0C0" stroke="none" x="231" y="215" width="311" height="111" opacity="0.2"/></g><g transform="translate(-214,-198) scale(1,1)"><rect fill="#ffffff" stroke="none" x="224" y="208" width="311" height="111"/></g><g transform="translate(-214,-198) scale(1,1)"><path fill="none" stroke="#000000" d="M 224 208 L 535 208 L 535 319 L 224 319 L 224 208 Z Z" stroke-miterlimit="10"/></g><g transform="translate(-214,-198) scale(1,1)"><path fill="none" stroke="#000000" d="M 224 236 L 535 236" stroke-miterlimit="10"/></g><g transform="translate(-214,-198) scale(1,1)"><path fill="none" stroke="#000000" d="M 224 262 L 535 262" stroke-miterlimit="10"/></g><g transform="translate(-214,-198) scale(1,1)"><g><path fill="none" stroke="none"/><text fill="#000000" stroke="none" font-family="Arial" font-size="16px" font-style="normal" font-weight="bold" text-decoration="none" x="350.58984375" y="230.5">Manage</text></g></g><g transform="translate(-214,-198) scale(1,1)"><g><path fill="none" stroke="none"/><text fill="#000000" stroke="none" font-family="Arial" font-size="16px" font-style="normal" font-weight="normal" text-decoration="none" x="229" y="256.5">+showcase</text></g></g><g transform="translate(-214,-198) scale(1,1)"><g><path fill="none" stroke="none"/><text fill="#000000" stroke="none" font-family="Arial" font-size="16px" font-style="normal" font-weight="normal" text-decoration="none" x="229" y="282.5">+register()</text></g></g><g transform="translate(-214,-198) scale(1,1)"><g><path fill="none" stroke="none"/><text fill="#000000" stroke="none" font-family="Arial" font-size="16px" font-style="normal" font-weight="normal" text-decoration="none" x="229" y="300.5">+create()</text></g></g><g transform="translate(-214,-198) scale(1,1)"><path fill="none" stroke="#000000" d="M 536 262 L 647 261" stroke-miterlimit="10"/></g><g transform="translate(-214,-198) scale(1,1)"><path fill="none" stroke="#000000" d="M 636.8756595745177 265.3008988536056 L 647 261 L 636.7998154855185 256.8822049746824" stroke-miterlimit="10"/></g><g transform="translate(-214,-198) scale(1,1)"><g><path fill="none" stroke="none"/><text fill="#000000" stroke="none" font-family="Arial" font-size="16px" font-style="normal" font-weight="normal" text-decoration="none" x="569.041015625" y="253.5">+uses</text></g></g><g transform="translate(-214,-198) scale(1,1)"><rect fill="#C0C0C0" stroke="none" x="495" y="463" width="255" height="97" opacity="0.2"/></g><g transform="translate(-214,-198) scale(1,1)"><rect fill="#ffffff" stroke="none" x="488" y="456" width="255" height="97"/></g><g transform="translate(-214,-198) scale(1,1)"><path fill="none" stroke="#000000" d="M 488 456 L 743 456 L 743 553 L 488 553 L 488 456 Z Z" stroke-miterlimit="10"/></g><g transform="translate(-214,-198) scale(1,1)"><path fill="none" stroke="#000000" d="M 488 484 L 743 484" stroke-miterlimit="10"/></g><g transform="translate(-214,-198) scale(1,1)"><path fill="none" stroke="#000000" d="M 488 510 L 743 510" stroke-miterlimit="10"/></g><g transform="translate(-214,-198) scale(1,1)"><g><path fill="none" stroke="none"/><text fill="#000000" stroke="none" font-family="Arial" font-size="16px" font-style="normal" font-weight="bold" text-decoration="none" x="567.0234375" y="478.5">UnderlinePen</text></g></g><g transform="translate(-214,-198) scale(1,1)"><g><path fill="none" stroke="none"/><text fill="#000000" stroke="none" font-family="Arial" font-size="16px" font-style="normal" font-weight="normal" text-decoration="none" x="493" y="504.5">+ulchar</text></g></g><g transform="translate(-214,-198) scale(1,1)"><g><path fill="none" stroke="none"/><text fill="#000000" stroke="none" font-family="Arial" font-size="16px" font-style="normal" font-weight="normal" text-decoration="none" x="493" y="530.5">+use()</text></g></g><g transform="translate(-214,-198) scale(1,1)"><g><path fill="none" stroke="none"/><text fill="#000000" stroke="none" font-family="Arial" font-size="16px" font-style="normal" font-weight="normal" text-decoration="none" x="493" y="548.5">+createClone()</text></g></g><g transform="translate(-214,-198) scale(1,1)"><rect fill="#C0C0C0" stroke="none" x="879" y="463" width="271" height="104" opacity="0.2"/></g><g transform="translate(-214,-198) scale(1,1)"><rect fill="#ffffff" stroke="none" x="872" y="456" width="271" height="104"/></g><g transform="translate(-214,-198) scale(1,1)"><path fill="none" stroke="#000000" d="M 872 456 L 1143 456 L 1143 560 L 872 560 L 872 456 Z Z" stroke-miterlimit="10"/></g><g transform="translate(-214,-198) scale(1,1)"><path fill="none" stroke="#000000" d="M 872 484 L 1143 484" stroke-miterlimit="10"/></g><g transform="translate(-214,-198) scale(1,1)"><path fill="none" stroke="#000000" d="M 872 510 L 1143 510" stroke-miterlimit="10"/></g><g transform="translate(-214,-198) scale(1,1)"><g><path fill="none" stroke="none"/><text fill="#000000" stroke="none" font-family="Arial" font-size="16px" font-style="normal" font-weight="bold" text-decoration="none" x="961.25390625" y="478.5">MassageBox</text></g></g><g transform="translate(-214,-198) scale(1,1)"><g><path fill="none" stroke="none"/><text fill="#000000" stroke="none" font-family="Arial" font-size="16px" font-style="normal" font-weight="normal" text-decoration="none" x="877" y="504.5">+decochar</text></g></g><g transform="translate(-214,-198) scale(1,1)"><g><path fill="none" stroke="none"/><text fill="#000000" stroke="none" font-family="Arial" font-size="16px" font-style="normal" font-weight="normal" text-decoration="none" x="877" y="530.5">+use()</text></g></g><g transform="translate(-214,-198) scale(1,1)"><g><path fill="none" stroke="none"/><text fill="#000000" stroke="none" font-family="Arial" font-size="16px" font-style="normal" font-weight="normal" text-decoration="none" x="877" y="548.5">+createClone()</text></g></g><g transform="translate(-214,-198) scale(1,1)"><path fill="none" stroke="#000000" d="M 615 455 L 616 368 L 816 368 L 815 313" stroke-miterlimit="10"/></g><g transform="translate(-214,-198) scale(1,1)"><path fill="#FFFFFF" stroke="none" d="M 823.7871350260388 333.16894290819835 L 815 313 L 806.9518464643625 333.47503906386515"/></g><g transform="translate(-214,-198) scale(1,1)"><path fill="none" stroke="#000000" d="M 823.7871350260388 333.16894290819835 L 815 313 L 806.9518464643625 333.47503906386515 L 823.7871350260388 333.16894290819835" stroke-miterlimit="10"/></g><g transform="translate(-214,-198) scale(1,1)"><path fill="none" stroke="#000000" d="M 1007 455 L 1008 368 L 816 368 L 815 313" stroke-miterlimit="10"/></g><g transform="translate(-214,-198) scale(1,1)"><path fill="#FFFFFF" stroke="none" d="M 823.7871350260388 333.16894290819835 L 815 313 L 806.9518464643625 333.47503906386515"/></g><g transform="translate(-214,-198) scale(1,1)"><path fill="none" stroke="#000000" d="M 823.7871350260388 333.16894290819835 L 815 313 L 806.9518464643625 333.47503906386515 L 823.7871350260388 333.16894290819835" stroke-miterlimit="10"/></g></g></svg>