<svg version="1.1" xmlns="http://www.w3.org/2000/svg" xmlns:xlink="http://www.w3.org/1999/xlink" width="395" height="132"><defs/><g><g transform="translate(-342,-278) scale(1,1)"><rect fill="#C0C0C0" stroke="none" x="359" y="295" width="375" height="112" opacity="0.2"/></g><g transform="translate(-342,-278) scale(1,1)"><rect fill="#ffffff" stroke="none" x="352" y="288" width="375" height="112"/></g><g transform="translate(-342,-278) scale(1,1)"><path fill="none" stroke="#000000" d="M 352 288 L 727 288 L 727 400 L 352 400 L 352 288 Z Z" stroke-miterlimit="10"/></g><g transform="translate(-342,-278) scale(1,1)"><path fill="none" stroke="#000000" d="M 352 316 L 727 316" stroke-miterlimit="10"/></g><g transform="translate(-342,-278) scale(1,1)"><path fill="none" stroke="#000000" d="M 352 342 L 727 342" stroke-miterlimit="10"/></g><g transform="translate(-342,-278) scale(1,1)"><g><path fill="none" stroke="none"/><text fill="#000000" stroke="none" font-family="Arial" font-size="16px" font-style="normal" font-weight="bold" text-decoration="none" x="506.140625" y="310.5">Singleton</text></g></g><g transform="translate(-342,-278) scale(1,1)"><g><path fill="none" stroke="none"/><text fill="#000000" stroke="none" font-family="Arial" font-size="16px" font-style="normal" font-weight="normal" text-decoration="none" x="357" y="336.5">-singleton</text><path fill="none" stroke="#000000" d="M 357 336.5 L 426.375 336.5" stroke-miterlimit="10"/></g></g><g transform="translate(-342,-278) scale(1,1)"><g><path fill="none" stroke="none"/><text fill="#000000" stroke="none" font-family="Arial" font-size="16px" font-style="normal" font-weight="normal" text-decoration="none" x="357" y="362.5">-Singleton()</text></g></g><g transform="translate(-342,-278) scale(1,1)"><g><path fill="none" stroke="none"/><text fill="#000000" stroke="none" font-family="Arial" font-size="16px" font-style="normal" font-weight="normal" text-decoration="none" x="357" y="380.5">+getInstance()</text><path fill="none" stroke="#000000" d="M 357 380.5 L 459.7265625 380.5" stroke-miterlimit="10"/></g></g></g></svg>