<svg version="1.1" xmlns="http://www.w3.org/2000/svg" xmlns:xlink="http://www.w3.org/1999/xlink" width="772" height="371"><defs/><g><g transform="translate(-342,-238) scale(1,1)"><rect fill="#C0C0C0" stroke="none" x="359" y="255" width="224" height="136" opacity="0.2"/></g><g transform="translate(-342,-238) scale(1,1)"><rect fill="#ffffff" stroke="none" x="352" y="248" width="224" height="136"/></g><g transform="translate(-342,-238) scale(1,1)"><path fill="none" stroke="#000000" d="M 352 248 L 576 248 L 576 384 L 352 384 L 352 248 Z Z" stroke-miterlimit="10"/></g><g transform="translate(-342,-238) scale(1,1)"><path fill="none" stroke="#000000" d="M 352 276 L 576 276" stroke-miterlimit="10"/></g><g transform="translate(-342,-238) scale(1,1)"><path fill="none" stroke="#000000" d="M 352 302 L 576 302" stroke-miterlimit="10"/></g><g transform="translate(-342,-238) scale(1,1)"><g><path fill="none" stroke="none"/><text fill="#000000" stroke="none" font-family="Arial" font-size="16px" font-style="normal" font-weight="bold" text-decoration="none" x="441.32421875" y="270.5">Player</text></g></g><g transform="translate(-342,-238) scale(1,1)"><g><path fill="none" stroke="none"/><text fill="#000000" stroke="none" font-family="Arial" font-size="16px" font-style="normal" font-weight="normal" text-decoration="none" x="357" y="296.5">-strategy</text></g></g><g transform="translate(-342,-238) scale(1,1)"><g><path fill="none" stroke="none"/><text fill="#000000" stroke="none" font-family="Arial" font-size="16px" font-style="normal" font-weight="normal" text-decoration="none" x="357" y="322.5">+nextHand()</text></g></g><g transform="translate(-342,-238) scale(1,1)"><g><path fill="none" stroke="none"/><text fill="#000000" stroke="none" font-family="Arial" font-size="16px" font-style="normal" font-weight="normal" text-decoration="none" x="357" y="340.5">+win()</text></g></g><g transform="translate(-342,-238) scale(1,1)"><g><path fill="none" stroke="none"/><text fill="#000000" stroke="none" font-family="Arial" font-size="16px" font-style="normal" font-weight="normal" text-decoration="none" x="357" y="358.5">+lose()</text></g></g><g transform="translate(-342,-238) scale(1,1)"><g><path fill="none" stroke="none"/><text fill="#000000" stroke="none" font-family="Arial" font-size="16px" font-style="normal" font-weight="normal" text-decoration="none" x="357" y="376.5">+even()</text></g></g><g transform="translate(-342,-238) scale(1,1)"><rect fill="#C0C0C0" stroke="none" x="759" y="279" width="200" height="88" opacity="0.2"/></g><g transform="translate(-342,-238) scale(1,1)"><rect fill="#ffffff" stroke="none" x="752" y="272" width="200" height="88"/></g><g transform="translate(-342,-238) scale(1,1)"><path fill="none" stroke="#000000" d="M 752 272 L 952 272 L 952 360 L 752 360 L 752 272 Z Z" stroke-miterlimit="10"/></g><g transform="translate(-342,-238) scale(1,1)"><path fill="none" stroke="#000000" d="M 752 316 L 952 316" stroke-miterlimit="10"/></g><g transform="translate(-342,-238) scale(1,1)"><g><path fill="none" stroke="none"/><text fill="#000000" stroke="none" font-family="Arial" font-size="16px" font-style="normal" font-weight="normal" text-decoration="none" x="812.41796875" y="292.5">«interface»</text></g></g><g transform="translate(-342,-238) scale(1,1)"><g><path fill="none" stroke="none"/><text fill="#000000" stroke="none" font-family="Arial" font-size="16px" font-style="normal" font-weight="bold" text-decoration="none" x="822.20703125" y="310.5">Strategy</text></g></g><g transform="translate(-342,-238) scale(1,1)"><g><path fill="none" stroke="none"/><text fill="#000000" stroke="none" font-family="Arial" font-size="16px" font-style="italic" font-weight="normal" text-decoration="none" x="757" y="336.5">+nextHand()</text></g></g><g transform="translate(-342,-238) scale(1,1)"><g><path fill="none" stroke="none"/><text fill="#000000" stroke="none" font-family="Arial" font-size="16px" font-style="italic" font-weight="normal" text-decoration="none" x="757" y="354.5">+study()</text></g></g><g transform="translate(-342,-238) scale(1,1)"><rect fill="#C0C0C0" stroke="none" x="631" y="519" width="200" height="81" opacity="0.2"/></g><g transform="translate(-342,-238) scale(1,1)"><rect fill="#ffffff" stroke="none" x="624" y="512" width="200" height="81"/></g><g transform="translate(-342,-238) scale(1,1)"><path fill="none" stroke="#000000" d="M 624 512 L 824 512 L 824 593 L 624 593 L 624 512 Z Z" stroke-miterlimit="10"/></g><g transform="translate(-342,-238) scale(1,1)"><path fill="none" stroke="#000000" d="M 624 540 L 824 540" stroke-miterlimit="10"/></g><g transform="translate(-342,-238) scale(1,1)"><path fill="none" stroke="#000000" d="M 624 550 L 824 550" stroke-miterlimit="10"/></g><g transform="translate(-342,-238) scale(1,1)"><g><path fill="none" stroke="none"/><text fill="#000000" stroke="none" font-family="Arial" font-size="16px" font-style="normal" font-weight="bold" text-decoration="none" x="665.3046875" y="534.5">WinningStrategy</text></g></g><g transform="translate(-342,-238) scale(1,1)"><g><path fill="none" stroke="none"/><text fill="#000000" stroke="none" font-family="Arial" font-size="16px" font-style="normal" font-weight="normal" text-decoration="none" x="629" y="570.5">+nextHand()</text></g></g><g transform="translate(-342,-238) scale(1,1)"><g><path fill="none" stroke="none"/><text fill="#000000" stroke="none" font-family="Arial" font-size="16px" font-style="normal" font-weight="normal" text-decoration="none" x="629" y="588.5">+study()</text></g></g><g transform="translate(-342,-238) scale(1,1)"><rect fill="#C0C0C0" stroke="none" x="919" y="519" width="192" height="87" opacity="0.2"/></g><g transform="translate(-342,-238) scale(1,1)"><rect fill="#ffffff" stroke="none" x="912" y="512" width="192" height="87"/></g><g transform="translate(-342,-238) scale(1,1)"><path fill="none" stroke="#000000" d="M 912 512 L 1104 512 L 1104 599 L 912 599 L 912 512 Z Z" stroke-miterlimit="10"/></g><g transform="translate(-342,-238) scale(1,1)"><path fill="none" stroke="#000000" d="M 912 540 L 1104 540" stroke-miterlimit="10"/></g><g transform="translate(-342,-238) scale(1,1)"><path fill="none" stroke="#000000" d="M 912 550 L 1104 550" stroke-miterlimit="10"/></g><g transform="translate(-342,-238) scale(1,1)"><g><path fill="none" stroke="none"/><text fill="#000000" stroke="none" font-family="Arial" font-size="16px" font-style="normal" font-weight="bold" text-decoration="none" x="961.30859375" y="534.5">ProbStrategy</text></g></g><g transform="translate(-342,-238) scale(1,1)"><g><path fill="none" stroke="none"/><text fill="#000000" stroke="none" font-family="Arial" font-size="16px" font-style="normal" font-weight="normal" text-decoration="none" x="917" y="570.5">+nextHand()</text></g></g><g transform="translate(-342,-238) scale(1,1)"><g><path fill="none" stroke="none"/><text fill="#000000" stroke="none" font-family="Arial" font-size="16px" font-style="normal" font-weight="normal" text-decoration="none" x="917" y="588.5">+study()</text></g></g><g transform="translate(-342,-238) scale(1,1)"><path fill="none" stroke="#000000" d="M 751 316 L 577 316" stroke-miterlimit="10"/></g><g transform="translate(-342,-238) scale(1,1)"><path fill="#FFFFFF" stroke="none" d="M 587.1626748576241 311.790482243984 L 577 316 L 587.1626748576241 320.209517756016 L 599 316"/></g><g transform="translate(-342,-238) scale(1,1)"><path fill="none" stroke="#000000" d="M 587.1626748576241 311.790482243984 L 577 316 L 587.1626748576241 320.209517756016 L 599 316 L 587.1626748576241 311.790482243984" stroke-miterlimit="10"/></g><g transform="translate(-342,-238) scale(1,1)"><path fill="none" stroke="#000000" d="M 726 511 L 728 480 L 856 480 L 853 361" stroke-miterlimit="10" stroke-dasharray="3"/></g><g transform="translate(-342,-238) scale(1,1)"><path fill="#FFFFFF" stroke="none" d="M 861.928602457808 381.10671674218406 L 853 361 L 845.0958795886395 381.53107110023035"/></g><g transform="translate(-342,-238) scale(1,1)"><path fill="none" stroke="#000000" d="M 861.928602457808 381.10671674218406 L 853 361 L 845.0958795886395 381.53107110023035 L 861.928602457808 381.10671674218406" stroke-miterlimit="10"/></g><g transform="translate(-342,-238) scale(1,1)"><path fill="none" stroke="#000000" d="M 1008 511 L 1008 480 L 856 480 L 853 361" stroke-miterlimit="10" stroke-dasharray="3"/></g><g transform="translate(-342,-238) scale(1,1)"><path fill="#FFFFFF" stroke="none" d="M 861.928602457808 381.10671674218406 L 853 361 L 845.0958795886395 381.53107110023035"/></g><g transform="translate(-342,-238) scale(1,1)"><path fill="none" stroke="#000000" d="M 861.928602457808 381.10671674218406 L 853 361 L 845.0958795886395 381.53107110023035 L 861.928602457808 381.10671674218406" stroke-miterlimit="10"/></g></g></svg>