<svg version="1.1" xmlns="http://www.w3.org/2000/svg" xmlns:xlink="http://www.w3.org/1999/xlink" width="676" height="348"><defs/><g><g transform="translate(-366,-270) scale(1,1)"><rect fill="#C0C0C0" stroke="none" x="575" y="287" width="199" height="117" opacity="0.2"/></g><g transform="translate(-366,-270) scale(1,1)"><rect fill="#ffffff" stroke="none" x="568" y="280" width="199" height="117"/></g><g transform="translate(-366,-270) scale(1,1)"><path fill="none" stroke="#000000" d="M 568 280 L 767 280 L 767 397 L 568 397 L 568 280 Z Z" stroke-miterlimit="10"/></g><g transform="translate(-366,-270) scale(1,1)"><path fill="none" stroke="#000000" d="M 568 308 L 767 308" stroke-miterlimit="10"/></g><g transform="translate(-366,-270) scale(1,1)"><path fill="none" stroke="#000000" d="M 568 318 L 767 318" stroke-miterlimit="10"/></g><g transform="translate(-366,-270) scale(1,1)"><g><path fill="none" stroke="none"/><text fill="#000000" stroke="none" font-family="Arial" font-size="16px" font-style="italic" font-weight="bold" text-decoration="none" x="611.92578125" y="302.5">AbstractDisplay</text></g></g><g transform="translate(-366,-270) scale(1,1)"><g><path fill="none" stroke="none"/><text fill="#000000" stroke="none" font-family="Arial" font-size="16px" font-style="italic" font-weight="normal" text-decoration="none" x="573" y="338.5">+open()</text></g></g><g transform="translate(-366,-270) scale(1,1)"><g><path fill="none" stroke="none"/><text fill="#000000" stroke="none" font-family="Arial" font-size="16px" font-style="italic" font-weight="normal" text-decoration="none" x="573" y="356.5">+print()</text></g></g><g transform="translate(-366,-270) scale(1,1)"><g><path fill="none" stroke="none"/><text fill="#000000" stroke="none" font-family="Arial" font-size="16px" font-style="italic" font-weight="normal" text-decoration="none" x="573" y="374.5">+close()</text></g></g><g transform="translate(-366,-270) scale(1,1)"><g><path fill="none" stroke="none"/><text fill="#000000" stroke="none" font-family="Arial" font-size="16px" font-style="normal" font-weight="normal" text-decoration="none" x="573" y="392.5">+display()</text></g></g><g transform="translate(-366,-270) scale(1,1)"><rect fill="#C0C0C0" stroke="none" x="383" y="511" width="255" height="104" opacity="0.2"/></g><g transform="translate(-366,-270) scale(1,1)"><rect fill="#ffffff" stroke="none" x="376" y="504" width="255" height="104"/></g><g transform="translate(-366,-270) scale(1,1)"><path fill="none" stroke="#000000" d="M 376 504 L 631 504 L 631 608 L 376 608 L 376 504 Z Z" stroke-miterlimit="10"/></g><g transform="translate(-366,-270) scale(1,1)"><path fill="none" stroke="#000000" d="M 376 532 L 631 532" stroke-miterlimit="10"/></g><g transform="translate(-366,-270) scale(1,1)"><path fill="none" stroke="#000000" d="M 376 542 L 631 542" stroke-miterlimit="10"/></g><g transform="translate(-366,-270) scale(1,1)"><g><path fill="none" stroke="none"/><text fill="#000000" stroke="none" font-family="Arial" font-size="16px" font-style="normal" font-weight="bold" text-decoration="none" x="459.9296875" y="526.5">CharDisplay</text></g></g><g transform="translate(-366,-270) scale(1,1)"><g><path fill="none" stroke="none"/><text fill="#000000" stroke="none" font-family="Arial" font-size="16px" font-style="normal" font-weight="normal" text-decoration="none" x="381" y="562.5">+open()</text></g></g><g transform="translate(-366,-270) scale(1,1)"><g><path fill="none" stroke="none"/><text fill="#000000" stroke="none" font-family="Arial" font-size="16px" font-style="normal" font-weight="normal" text-decoration="none" x="381" y="580.5">+print()</text></g></g><g transform="translate(-366,-270) scale(1,1)"><g><path fill="none" stroke="none"/><text fill="#000000" stroke="none" font-family="Arial" font-size="16px" font-style="normal" font-weight="normal" text-decoration="none" x="381" y="598.5">+close()</text></g></g><g transform="translate(-366,-270) scale(1,1)"><rect fill="#C0C0C0" stroke="none" x="735" y="511" width="304" height="104" opacity="0.2"/></g><g transform="translate(-366,-270) scale(1,1)"><rect fill="#ffffff" stroke="none" x="728" y="504" width="304" height="104"/></g><g transform="translate(-366,-270) scale(1,1)"><path fill="none" stroke="#000000" d="M 728 504 L 1032 504 L 1032 608 L 728 608 L 728 504 Z Z" stroke-miterlimit="10"/></g><g transform="translate(-366,-270) scale(1,1)"><path fill="none" stroke="#000000" d="M 728 532 L 1032 532" stroke-miterlimit="10"/></g><g transform="translate(-366,-270) scale(1,1)"><path fill="none" stroke="#000000" d="M 728 542 L 1032 542" stroke-miterlimit="10"/></g><g transform="translate(-366,-270) scale(1,1)"><g><path fill="none" stroke="none"/><text fill="#000000" stroke="none" font-family="Arial" font-size="16px" font-style="normal" font-weight="bold" text-decoration="none" x="832.87109375" y="526.5">StringDisplay</text></g></g><g transform="translate(-366,-270) scale(1,1)"><g><path fill="none" stroke="none"/><text fill="#000000" stroke="none" font-family="Arial" font-size="16px" font-style="normal" font-weight="normal" text-decoration="none" x="733" y="562.5">+open()</text></g></g><g transform="translate(-366,-270) scale(1,1)"><g><path fill="none" stroke="none"/><text fill="#000000" stroke="none" font-family="Arial" font-size="16px" font-style="normal" font-weight="normal" text-decoration="none" x="733" y="580.5">+print()</text></g></g><g transform="translate(-366,-270) scale(1,1)"><g><path fill="none" stroke="none"/><text fill="#000000" stroke="none" font-family="Arial" font-size="16px" font-style="normal" font-weight="normal" text-decoration="none" x="733" y="598.5">+close()</text></g></g><g transform="translate(-366,-270) scale(1,1)"><path fill="none" stroke="#000000" d="M 504 503 L 504 464 L 664 464 L 666 398" stroke-miterlimit="10"/></g><g transform="translate(-366,-270) scale(1,1)"><path fill="#FFFFFF" stroke="none" d="M 673.7995355914202 418.57102925373863 L 666 398 L 656.9691902254937 418.0610187881045"/></g><g transform="translate(-366,-270) scale(1,1)"><path fill="none" stroke="#000000" d="M 673.7995355914202 418.57102925373863 L 666 398 L 656.9691902254937 418.0610187881045 L 673.7995355914202 418.57102925373863" stroke-miterlimit="10"/></g><g transform="translate(-366,-270) scale(1,1)"><path fill="none" stroke="#000000" d="M 880 503 L 880 464 L 664 464 L 666 398" stroke-miterlimit="10"/></g><g transform="translate(-366,-270) scale(1,1)"><path fill="#FFFFFF" stroke="none" d="M 673.7995355914202 418.57102925373863 L 666 398 L 656.9691902254937 418.0610187881045"/></g><g transform="translate(-366,-270) scale(1,1)"><path fill="none" stroke="#000000" d="M 673.7995355914202 418.57102925373863 L 666 398 L 656.9691902254937 418.0610187881045 L 673.7995355914202 418.57102925373863" stroke-miterlimit="10"/></g></g></svg>